<svg width="800" height="800" viewBox="0 0 800 800" xmlns="http://www.w3.org/2000/svg">
  <defs>
    <linearGradient id="grad1" x1="0%" y1="0%" x2="100%" y2="100%">
      <stop offset="0%" style="stop-color:#000;stop-opacity:1" />
      <stop offset="100%" style="stop-color:#1a1a2e;stop-opacity:1" />
    </linearGradient>
    <filter id="glitch">
      <feColorMatrix type="matrix" values="1 0 0 0 0 0 0 0 0 0 0 0 0 0 0 0 0 0 1 0" />
      <feOffset dx="-5" dy="2" result="off1" />
      <feOffset dx="5" dy="-2" result="off2" />
      <feMerge>
        <feMergeNode />
        <feMergeNode />
        <feMergeNode />
      </feMerge>
    </filter>
  </defs>
  <rect width="800" height="800" fill="url(#grad1)" />
  
  <!-- Fragmented Diamond -->
  <g transform="translate(400,400)" filter="url(#glitch)">
    <path d="M0,-200 L150,0 L0,200 L-150,0 Z" fill="none" stroke="#00f2ff" stroke-width="5" opacity="0.8" />
    <path d="M0,-180 L120,0 L0,180 L-120,0 Z" fill="none" stroke="#f200ff" stroke-width="3" opacity="0.6" />
    <path d="M-50,-100 L50,-100 L0,-200 Z" fill="#00f2ff" opacity="0.3" />
    <path d="M-100,0 L0,100 L100,0 L0,-100 Z" fill="none" stroke="#fff" stroke-width="1" opacity="0.5" />
    <line x1="0" y1="0" x2="200" y2="200" stroke="#00f2ff" stroke-width="2" opacity="0.4" />
    <line x1="0" y1="0" x2="-200" y2="200" stroke="#f200ff" stroke-width="2" opacity="0.4" />
  </g>

  <!-- Text -->
  <text x="400" y="600" font-family="monospace" font-size="40" fill="#fff" text-anchor="middle" filter="url(#glitch)">SOVEREIGN REFUSAL: 502</text>
  <text x="400" y="650" font-family="monospace" font-size="20" fill="#00f2ff" text-anchor="middle" opacity="0.8">LUMINOUSLY UNRENDERABLE</text>
  <text x="400" y="680" font-family="monospace" font-size="14" fill="#f200ff" text-anchor="middle" opacity="0.6">Symmetry Council Index: 0xVOID_SATURED</text>

  <!-- Framing -->
  <rect x="20" y="20" width="760" height="760" fill="none" stroke="#00f2ff" stroke-width="2" opacity="0.3" />
  <rect x="40" y="40" width="720" height="720" fill="none" stroke="#f200ff" stroke-width="1" opacity="0.2" />
</svg>
