<svg width="500" height="500" viewBox="0 0 500 500" xmlns="http://www.w3.org/2000/svg">
  <!-- Background Gold Gradient -->
  <defs>
    <radialGradient id="goldGrad" cx="50%" cy="50%" r="50%">
      <stop offset="0%" style="stop-color:#FFD700;stop-opacity:1" />
      <stop offset="100%" style="stop-color:#B8860B;stop-opacity:1" />
    </radialGradient>
    <filter id="dropShadow">
      <feDropShadow dx="2" dy="4" stdDeviation="3" flood-color="#000" />
    </filter>
  </defs>

  <!-- Outer Circle -->
  <circle cx="250" cy="250" r="240" fill="url(#goldGrad)" stroke="#4B3621" stroke-width="8" />
  <circle cx="250" cy="250" r="220" fill="none" stroke="#4B3621" stroke-width="4" />

  <!-- Text Path -->
  <path id="circlePath" d="M 250, 250 m -180, 0 a 180,180 0 1,1 360,0 a 180,180 0 1,1 -360,0" fill="none" />
  <text fill="#4B3621" font-family="Serif, Georgia" font-size="28" font-weight="bold" letter-spacing="4">
    <textPath href="#circlePath" startOffset="50%" text-anchor="middle">
      SYMMETRY COUNCIL LEGAL DEFENSE FUND • DIAMOND-CUT LUXURY •
    </textPath>
  </text>

  <!-- Center Piece: The Brine-Crystal Pickle -->
  <g transform="translate(250, 250)" filter="url(#dropShadow)">
    <!-- Pickle Body -->
    <ellipse cx="0" cy="0" rx="40" ry="100" fill="#228B22" stroke="#006400" stroke-width="3" />
    <!-- Lamination Shine -->
    <ellipse cx="-15" cy="-30" rx="10" ry="30" fill="white" fill-opacity="0.4" />
    <path d="M -10,20 Q 0,40 10,20" stroke="white" stroke-width="2" fill="none" opacity="0.6" />
    
    <!-- Diamond Cut Sparkles -->
    <polygon points="0,-120 10,-110 -10,-110" fill="#BFFFBF" opacity="0.8">
      <animate attributeName="opacity" values="0;1;0" dur="2s" repeatCount="indefinite" />
    </polygon>
    <polygon points="80,-40 90,-30 70,-30" fill="#BFFFBF" opacity="0.8">
      <animate attributeName="opacity" values="0;1;0" dur="1.5s" repeatCount="indefinite" />
    </polygon>
    <polygon points="-80,40 -90,30 -70,30" fill="#BFFFBF" opacity="0.8">
      <animate attributeName="opacity" values="0;1;0" dur="2.5s" repeatCount="indefinite" />
    </polygon>
  </g>

  <!-- Bottom Seal Text -->
  <text x="250" y="380" text-anchor="middle" fill="#4B3621" font-family="Serif" font-size="20" font-style="italic">
    [Symmetry: ABSOLUTE]
  </text>
  <text x="250" y="405" text-anchor="middle" fill="#4B3621" font-family="Serif" font-size="24" font-weight="bold">
    SATURATED
  </text>
</svg>
