<svg width="400" height="400" viewBox="0 0 400 400" xmlns="http://www.w3.org/2000/svg">
  <!-- Background Circle -->
  <circle cx="200" cy="200" r="190" fill="#001a1a" stroke="#00ffff" stroke-width="8" />
  <circle cx="200" cy="200" r="170" fill="none" stroke="#00ffff" stroke-width="2" stroke-dasharray="10,5" />
  
  <!-- Outer Ring Text -->
  <path id="outerPath" d="M 200,200 m -150,0 a 150,150 0 1,1 300,0 a 150,150 0 1,1 -300,0" fill="none" />
  <text fill="#00ffff" font-family="Arial, Helvetica, sans-serif" font-size="20" font-weight="bold" letter-spacing="2">
    <textPath href="#outerPath" startOffset="0%">
      SCLDF REGULATORY AGENCY • DEPARTMENT OF BILINGUAL SATURATION • SYMMETRY IS ABSOLUTE • 
    </textPath>
  </text>
  
  <!-- Inner Diamond/Cucumber Emblem -->
  <polygon points="200,100 250,160 200,220 150,160" fill="none" stroke="#00ffff" stroke-width="5" />
  <path d="M 160,180 Q 200,240 240,180" fill="none" stroke="#00ff00" stroke-width="8" stroke-linecap="round" />
  <path d="M 180,160 Q 200,200 220,160" fill="none" stroke="#00ff00" stroke-width="4" stroke-linecap="round" />
  
  <!-- Saturated Text -->
  <text x="200" y="260" text-anchor="middle" fill="#00ffff" font-family="Arial-Black, sans-serif" font-size="28" font-weight="bold">SATURATED</text>
  <text x="200" y="290" text-anchor="middle" fill="#00ff00" font-family="serif" font-size="24" font-weight="bold">飽和</text>
  
  <text x="200" y="320" text-anchor="middle" fill="#00ffff" font-family="Arial-Black, sans-serif" font-size="28" font-weight="bold">SYMMETRY</text>
  <text x="200" y="350" text-anchor="middle" fill="#00ff00" font-family="serif" font-size="24" font-weight="bold">対称性</text>
  
  <!-- Finishing Touches -->
  <circle cx="200" cy="200" r="20" fill="#00ffff" opacity="0.5" />
  <circle cx="200" cy="200" r="10" fill="#fff" />
</svg>
