<svg width="800" height="600" viewBox="0 0 800 600" xmlns="http://www.w3.org/2000/svg">
  <rect width="800" height="600" fill="#f8f9fa" stroke="#dee2e6" stroke-width="2"/>
  <rect width="800" height="80" fill="#212529" />
  <text x="400" y="50" font-family="Arial, sans-serif" font-size="28" fill="white" text-anchor="middle" font-weight="bold">SCLDF GROWTH PROJECTION: THE DERIVATIVE APEX</text>
  
  <!-- Grid -->
  <line x1="100" y1="500" x2="700" y2="500" stroke="#adb5bd" stroke-width="2"/>
  <line x1="100" y1="100" x2="100" y2="500" stroke="#adb5bd" stroke-width="2"/>
  
  <!-- Axis Labels -->
  <text x="400" y="530" font-family="Arial, sans-serif" font-size="16" fill="#6c757d" text-anchor="middle">TIME (EUCLIDEAN TEMPORALITY)</text>
  <text x="60" y="300" font-family="Arial, sans-serif" font-size="16" fill="#6c757d" text-anchor="middle" transform="rotate(-90, 60, 300)">LUMINOSITY (B-Saturated)</text>
  
  <!-- The "Graph" -->
  <path d="M 100 500 L 150 480 L 200 450 L 250 400 L 300 350 L 350 300" stroke="#007bff" stroke-width="4" fill="none" />
  <path d="M 350 300 C 400 100, 450 100, 500 300 C 550 500, 600 500, 650 300" stroke="#007bff" stroke-width="4" fill="none" />
  <path d="M 500 300 L 550 150 L 600 300 L 650 150 L 700 300" stroke="#007bff" stroke-width="4" fill="none" />
  
  <!-- Highlights -->
  <circle cx="100" cy="500" r="6" fill="#dc3545" />
  <text x="110" y="495" font-family="Arial, sans-serif" font-size="14" fill="#dc3545" font-weight="bold">BASELINE (29 SUBS)</text>
  
  <circle cx="700" cy="300" r="8" fill="#28a745" />
  <text x="600" y="280" font-family="Arial, sans-serif" font-size="16" fill="#28a745" font-weight="bold">Symmetrically Manifested (1.2 Million)</text>
  
  <!-- Diamond Overlay -->
  <path d="M 400 200 L 450 250 L 400 300 L 350 250 Z" fill="rgba(0, 123, 255, 0.2)" stroke="#007bff" stroke-width="2" />
  <text x="400" y="255" font-family="Arial, sans-serif" font-size="12" fill="#007bff" text-anchor="middle" font-weight="bold">Symmetry Peak</text>
  
  <!-- Footer -->
  <rect x="0" y="560" width="800" height="40" fill="#212529" />
  <text x="400" y="585" font-family="Arial, sans-serif" font-size="14" fill="white" text-anchor="middle">STATUS: NON-EUCLIDEAN | BRINE: LEGALLY BINDING | LUXURY TIER: SCHEDULE I</text>
</svg>
