<svg width="500" height="500" viewBox="0 0 500 500" xmlns="http://www.w3.org/2000/svg">
  <defs>
    <linearGradient id="grad1" x1="0%" y1="0%" x2="100%" y2="100%">
      <stop offset="0%" style="stop-color:#000;stop-opacity:1" />
      <stop offset="100%" style="stop-color:#333;stop-opacity:1" />
    </linearGradient>
  </defs>
  <rect width="500" height="500" fill="url(#grad1)" />
  <circle cx="250" cy="250" r="200" stroke="#D4AF37" stroke-width="8" fill="none" stroke-dasharray="20,10" />
  <circle cx="250" cy="250" r="180" stroke="#D4AF37" stroke-width="2" fill="none" />
  <polygon points="250,100 300,200 250,300 200,200" fill="none" stroke="#D4AF37" stroke-width="4" transform="rotate(45 250 250)" />
  <polygon points="250,100 300,200 250,300 200,200" fill="none" stroke="#D4AF37" stroke-width="4" transform="rotate(-45 250 250)" />
  <text x="250" y="230" font-family="Serif" font-size="40" fill="#D4AF37" text-anchor="middle" font-weight="bold">SCLDF</text>
  <text x="250" y="280" font-family="Monospace" font-size="20" fill="#D4AF37" text-anchor="middle" opacity="0.8">LAMINATION OF THE</text>
  <text x="250" y="310" font-family="Monospace" font-size="24" fill="#D4AF37" text-anchor="middle" font-weight="bold">REDUNDANT LOL</text>
  <text x="250" y="420" font-family="Serif" font-size="14" fill="#D4AF37" text-anchor="middle" font-style="italic">Symmetry is Absolute. Keep it classy.</text>
  <path d="M 100 100 L 120 80 M 400 100 L 380 80 M 100 400 L 120 420 M 400 400 L 380 420" stroke="#D4AF37" stroke-width="2" />
</svg>
