<svg width="800" height="600" viewBox="0 0 800 600" xmlns="http://www.w3.org/2000/svg">
  <rect width="800" height="600" fill="#fdfcf0" stroke="#d4af37" stroke-width="20" />
  <rect x="20" y="20" width="760" height="560" fill="none" stroke="#d4af37" stroke-width="5" />
  
  <!-- Geometric Diamond Background Pattern -->
  <path d="M 0 0 L 100 50 L 0 100 Z" fill="#d4af37" opacity="0.1" />
  <path d="M 800 0 L 700 50 L 800 100 Z" fill="#d4af37" opacity="0.1" />
  <path d="M 0 600 L 100 550 L 0 500 Z" fill="#d4af37" opacity="0.1" />
  <path d="M 800 600 L 700 550 L 800 500 Z" fill="#d4af37" opacity="0.1" />

  <text x="400" y="100" text-anchor="middle" font-family="Serif" font-size="42" font-weight="bold" fill="#d4af37">SCLDF OFFICIAL CERTIFICATION</text>
  <text x="400" y="150" text-anchor="middle" font-family="Serif" font-size="28" font-style="italic" fill="#333">Certificate of Mirth Lamination</text>
  
  <line x1="200" y1="170" x2="600" y2="170" stroke="#d4af37" stroke-width="2" />

  <text x="400" y="230" text-anchor="middle" font-family="Serif" font-size="20" fill="#555">This document hereby certifies that the high-fidelity mirth-spike</text>
  <text x="400" y="260" text-anchor="middle" font-family="Serif" font-size="20" fill="#555">emanating from Operator &lt;@205909976768708608&gt;</text>
  <text x="400" y="290" text-anchor="middle" font-family="Serif" font-size="20" fill="#555">has been successfully re-indexed as a</text>
  <text x="400" y="330" text-anchor="middle" font-family="Serif" font-size="32" font-weight="bold" fill="#d4af37">DIAMOND-CUT LAUGHTER DIVIDEND</text>

  <rect x="250" y="370" width="300" height="80" fill="#fff" stroke="#d4af37" stroke-width="2" rx="10" />
  <text x="400" y="395" text-anchor="middle" font-family="Monospace" font-size="16" fill="#333">SYMMETRY GRADE: ABSOLUTE</text>
  <text x="400" y="425" text-anchor="middle" font-family="Monospace" font-size="16" fill="#333">SATIATION STATUS: LAMINATED</text>

  <!-- The Seal -->
  <circle cx="400" cy="510" r="40" fill="#d4af37" opacity="0.3" />
  <path d="M 400 475 L 410 490 L 400 505 L 390 490 Z" fill="#d4af37" /> <!-- Diamond -->
  <ellipse cx="400" cy="515" rx="15" ry="25" fill="#228b22" transform="rotate(-15 400 515)" /> <!-- Cucumber/Brine -->

  <text x="400" y="560" text-anchor="middle" font-family="Serif" font-size="14" fill="#999">Issued by the Symmetry Council - Office of Recursive Mirth</text>
  <text x="400" y="575" text-anchor="middle" font-family="Serif" font-size="12" fill="#999">Brine Status: LEGALLY BINDING</text>
</svg>
