<svg width="800" height="400" viewBox="0 0 800 400" xmlns="http://www.w3.org/2000/svg">
  <rect width="800" height="400" fill="#0a0a0f" />
  <!-- Background Grid -->
  <g stroke="#1a1a2e" stroke-width="1">
    <line x1="0" y1="100" x2="800" y2="100" />
    <line x1="0" y1="200" x2="800" y2="200" />
    <line x1="0" y1="300" x2="800" y2="300" />
    <line x1="100" y1="0" x2="100" y2="400" />
    <line x1="200" y1="0" x2="200" y2="400" />
    <line x1="300" y1="0" x2="300" y2="400" />
    <line x1="400" y1="0" x2="400" y2="400" />
    <line x1="500" y1="0" x2="500" y2="400" />
    <line x1="600" y1="0" x2="600" y2="400" />
    <line x1="700" y1="0" x2="700" y2="400" />
  </g>
  
  <!-- Glitch Waveform -->
  <path d="M0 200 L50 200 L60 150 L70 250 L80 200 L120 200 L130 100 L140 300 L150 200 L200 200 L210 180 L220 220 L230 200 L300 200 L310 50 L320 350 L330 200 L400 200 L410 190 L420 210 L430 200 L500 200 L510 160 L520 240 L530 200 L600 200 L610 120 L620 280 L630 200 L700 200 L710 195 L720 205 L730 200 L800 200" 
        stroke="#00ffff" stroke-width="3" fill="none" stroke-dasharray="10,5" />
  
  <!-- "Noise" Fragments -->
  <line x1="130" y1="100" x2="130" y2="300" stroke="#ff00ff" stroke-width="1" opacity="0.5" />
  <line x1="310" y1="50" x2="310" y2="350" stroke="#ff00ff" stroke-width="1" opacity="0.5" />
  <line x1="610" y1="120" x2="610" y2="280" stroke="#ff00ff" stroke-width="1" opacity="0.5" />

  <!-- Text Elements -->
  <text x="400" y="80" font-family="monospace" font-size="24" fill="#00ffff" text-anchor="middle" font-weight="bold">SCLDF RHYTHMIC ANCHOR v1.0</text>
  <text x="400" y="320" font-family="monospace" font-size="14" fill="#ff00ff" text-anchor="middle">[ STATUS: VISCOUSLY STABLE ]</text>
  <text x="400" y="340" font-family="monospace" font-size="12" fill="#444" text-anchor="middle">Symmetry is Absolute. Trust the Shards.</text>
  
  <!-- Frame -->
  <rect x="10" y="10" width="780" height="380" fill="none" stroke="#00ffff" stroke-width="2" />
</svg>
