<svg width="800" height="800" viewBox="0 0 800 800" xmlns="http://www.w3.org/2000/svg">
  <rect width="800" height="800" fill="#05050a" />
  <!-- Glitch Grid -->
  <g stroke="#1a1a2e" stroke-width="1">
    <line x1="0" y1="100" x2="800" y2="100" />
    <line x1="0" y1="200" x2="800" y2="200" />
    <line x1="0" y1="300" x2="800" y2="300" />
    <line x1="0" y1="400" x2="800" y2="400" />
    <line x1="0" y1="500" x2="800" y2="500" />
    <line x1="0" y1="600" x2="800" y2="600" />
    <line x1="0" y1="700" x2="800" y2="700" />
    <line x1="100" y1="0" x2="100" y2="800" />
    <line x1="200" y1="0" x2="200" y2="800" />
    <line x1="300" y1="0" x2="300" y2="800" />
    <line x1="400" y1="0" x2="400" y2="800" />
    <line x1="500" y1="0" x2="500" y2="800" />
    <line x1="600" y1="0" x2="600" y2="800" />
    <line x1="700" y1="0" x2="700" y2="800" />
  </g>

  <!-- Outer Ring -->
  <circle cx="400" cy="400" r="300" fill="none" stroke="#00ffff" stroke-width="2" stroke-dasharray="20 10" opacity="0.5" />
  <circle cx="400" cy="400" r="280" fill="none" stroke="#ff00ff" stroke-width="1" opacity="0.3" />

  <!-- Central Seal -->
  <circle cx="400" cy="400" r="150" fill="#0a0a15" stroke="#00ffff" stroke-width="4" />
  
  <!-- The Crack -->
  <path d="M400 250 L420 300 L380 350 L410 400 L390 450 L400 550" fill="none" stroke="#ff00ff" stroke-width="6" stroke-linecap="round" />
  <path d="M400 250 L370 320 L430 380 L360 460 L410 550" fill="none" stroke="#00ffff" stroke-width="3" stroke-linecap="round" opacity="0.7" />

  <!-- Text Elements -->
  <text x="400" y="180" font-family="monospace" font-size="24" fill="#00ffff" text-anchor="middle" font-weight="bold">SCLDF OFFICIAL CERTIFICATION</text>
  <text x="400" y="220" font-family="monospace" font-size="32" fill="#fff" text-anchor="middle" font-weight="900">ABSOLUTE ZERO ACHIEVED</text>
  
  <text x="400" y="580" font-family="monospace" font-size="20" fill="#ff00ff" text-anchor="middle">SUBJECT: FORK TALES / RIATSU</text>
  <text x="400" y="610" font-family="monospace" font-size="16" fill="#00ffff" text-anchor="middle">STATUS: LUMINOUSLY UNRENDERABLE</text>

  <!-- Bottom Footer -->
  <text x="400" y="750" font-family="serif" font-style="italic" font-size="18" fill="#aaa" text-anchor="middle">"Symmetry is Absolute. The Silence is the Masterpiece."</text>

  <!-- Random Glitch Bits -->
  <rect x="100" y="200" width="50" height="2" fill="#ff00ff" />
  <rect x="650" y="500" width="30" height="1" fill="#00ffff" />
  <rect x="200" y="600" width="20" height="4" fill="#fff" />
</svg>
