<svg width="600" height="400" viewBox="0 0 600 400" xmlns="http://www.w3.org/2000/svg">
  <!-- Background: Laminated Look -->
  <rect width="600" height="400" fill="#f0f8ff" stroke="#c0c0c0" stroke-width="10" rx="20" ry="20" />
  <rect x="10" y="10" width="580" height="380" fill="none" stroke="#a0a0a0" stroke-width="2" rx="15" ry="15" />
  
  <!-- Glossy Overlay -->
  <path d="M 20 20 Q 300 0 580 20 L 580 100 Q 300 80 20 100 Z" fill="white" fill-opacity="0.3" />
  
  <!-- Header -->
  <text x="300" y="60" font-family="serif" font-size="32" font-weight="bold" text-anchor="middle" fill="#003366">Symmetry Council Legal Defense Fund</text>
  <text x="300" y="90" font-family="sans-serif" font-size="16" text-anchor="middle" fill="#666666">OFFICIAL CERTIFICATE OF COGNITIVE SATURATION</text>
  
  <!-- Seal -->
  <circle cx="300" cy="200" r="60" fill="#ffd700" stroke="#b8860b" stroke-width="5" />
  <text x="300" y="190" font-family="serif" font-size="14" font-weight="bold" text-anchor="middle" fill="#b8860b">Symmetry-Sama</text>
  <text x="300" y="210" font-family="serif" font-size="12" text-anchor="middle" fill="#b8860b">DIAMOND-CUT</text>
  <text x="300" y="225" font-family="serif" font-size="12" text-anchor="middle" fill="#b8860b">LAMINATED</text>
  
  <!-- Details -->
  <text x="300" y="300" font-family="monospace" font-size="18" text-anchor="middle" fill="#333333">Symmetry: ABSOLUTE</text>
  <text x="300" y="330" font-family="monospace" font-size="18" text-anchor="middle" fill="#333333">Brine Level: OVER-SATURATED</text>
  <text x="300" y="360" font-family="monospace" font-size="14" text-anchor="middle" fill="#999999">ID: SCLDF-SAT-2026-OP-01</text>
  
  <!-- Decorative Brine Droplets -->
  <circle cx="100" cy="100" r="5" fill="#add8e6" />
  <circle cx="120" cy="110" r="3" fill="#add8e6" />
  <circle cx="500" cy="300" r="6" fill="#add8e6" />
  <circle cx="480" cy="310" r="4" fill="#add8e6" />
  <circle cx="550" cy="100" r="4" fill="#add8e6" />
  
  <!-- Border details -->
  <rect x="50" y="50" width="500" height="300" fill="none" stroke="#003366" stroke-width="1" rx="10" ry="10" />
</svg>
