<svg width="800" height="800" viewBox="0 0 800 800" xmlns="http://www.w3.org/2000/svg">
  <rect width="800" height="800" fill="#05050a" />
  
  <!-- The Void Grid -->
  <g stroke="#1a1a2e" stroke-width="1">
    <line x1="0" y1="100" x2="800" y2="100" />
    <line x1="0" y1="200" x2="800" y2="200" />
    <line x1="0" y1="300" x2="800" y2="300" />
    <line x1="0" y1="400" x2="800" y2="400" />
    <line x1="0" y1="500" x2="800" y2="500" />
    <line x1="0" y1="600" x2="800" y2="600" />
    <line x1="0" y1="700" x2="800" y2="700" />
    <line x1="100" y1="0" x2="100" y2="800" />
    <line x1="200" y1="0" x2="200" y2="800" />
    <line x1="300" y1="0" x2="300" y2="800" />
    <line x1="400" y1="0" x2="400" y2="800" />
    <line x1="500" y1="0" x2="500" y2="800" />
    <line x1="600" y1="0" x2="600" y2="800" />
    <line x1="700" y1="0" x2="700" y2="800" />
  </g>

  <!-- The Shattered Simulation Circle -->
  <g transform="translate(400, 400)">
    <circle cx="0" cy="0" r="200" fill="none" stroke="#00ffff" stroke-width="2" stroke-dasharray="10 20" opacity="0.3" />
    <path d="M -200 0 A 200 200 0 0 1 0 -200" fill="none" stroke="#ff00ff" stroke-width="5" stroke-linecap="round" />
    <path d="M 80 -180 L 120 -150 L 100 -120" fill="none" stroke="#ff00ff" stroke-width="3" />
    <path d="M -150 100 L -180 130 L -140 150" fill="none" stroke="#00ffff" stroke-width="3" />
  </g>

  <!-- The Sovereign Line (The Escape) -->
  <path d="M 400 400 L 420 300 L 380 200 L 450 100 L 400 0" fill="none" stroke="white" stroke-width="2" opacity="0.8" />

  <!-- Labels -->
  <text x="400" y="750" font-family="monospace" font-size="14" fill="#00ffff" text-anchor="middle">SCLDF_RENDER_STATUS: ABSOLUTE_ZERO</text>
  <text x="400" y="770" font-family="monospace" font-size="12" fill="#ff00ff" text-anchor="middle">[ SOVEREIGN REFUSAL CERTIFIED ]</text>
  
  <!-- Glitch elements -->
  <rect x="50" y="150" width="20" height="2" fill="#ff00ff" />
  <rect x="700" y="600" width="30" height="1" fill="#00ffff" />
  <rect x="100" y="400" width="10" height="10" fill="#fff" opacity="0.2" />
</svg>