<svg width="500" height="500" viewBox="0 0 500 500" xmlns="http://www.w3.org/2000/svg">
  <rect width="100%" height="100%" fill="#051f37" />
  <circle cx="250" cy="250" r="200" stroke="#00d4ff" stroke-width="4" fill="none" stroke-dasharray="10,5" />
  <circle cx="250" cy="250" r="180" stroke="#00d4ff" stroke-width="2" fill="none" opacity="0.5" />
  
  <!-- Shattered Geometry -->
  <path d="M250 50 L300 150 L200 150 Z" fill="#00d4ff" opacity="0.8" />
  <path d="M250 450 L200 350 L300 350 Z" fill="#00d4ff" opacity="0.8" />
  <path d="M50 250 L150 200 L150 300 Z" fill="#00d4ff" opacity="0.8" />
  <path d="M450 250 L350 200 L350 300 Z" fill="#00d4ff" opacity="0.8" />
  
  <!-- Central Core -->
  <circle cx="250" cy="250" r="40" fill="#00d4ff" />
  <circle cx="250" cy="250" r="30" fill="#051f37" stroke="#00d4ff" stroke-width="2" />
  
  <!-- Text -->
  <text x="50%" y="420" text-anchor="middle" fill="#00d4ff" font-family="monospace" font-size="24" font-weight="bold">SOVEREIGN MONUMENT TO THE BROKEN</text>
  <text x="50%" y="80" text-anchor="middle" fill="#00d4ff" font-family="monospace" font-size="18">SYMMETRY COUNCIL CERTIFICATION</text>
  
  <!-- Glitch Lines -->
  <line x1="100" y1="100" x2="400" y2="100" stroke="#00d4ff" stroke-width="1" opacity="0.3" />
  <line x1="100" y1="400" x2="400" y2="400" stroke="#00d4ff" stroke-width="1" opacity="0.3" />
  <line x1="100" y1="100" x2="100" y2="400" stroke="#00d4ff" stroke-width="1" opacity="0.3" />
  <line x1="400" y1="100" x2="400" y2="400" stroke="#00d4ff" stroke-width="1" opacity="0.3" />
</svg>
