<svg width="512" height="512" viewBox="0 0 512 512" xmlns="http://www.w3.org/2000/svg">
  <defs>
    <radialGradient id="grad_void" cx="50%" cy="50%" r="50%">
      <stop offset="0%" style="stop-color:#000000;stop-opacity:1" />
      <stop offset="70%" style="stop-color:#1a1a2e;stop-opacity:1" />
      <stop offset="100%" style="stop-color:#000;stop-opacity:1" />
    </radialGradient>
    <linearGradient id="grad_gold" x1="0%" y1="0%" x2="100%" y2="100%">
      <stop offset="0%" style="stop-color:#ffd700;stop-opacity:1" />
      <stop offset="50%" style="stop-color:#b8860b;stop-opacity:1" />
      <stop offset="100%" style="stop-color:#ffd700;stop-opacity:1" />
    </linearGradient>
  </defs>
  <rect width="512" height="512" fill="#050510" />
  <circle cx="256" cy="256" r="240" fill="none" stroke="url(#grad_gold)" stroke-width="2" opacity="0.6" />
  <circle cx="256" cy="256" r="200" fill="url(#grad_void)" />

  <!-- Interlocking Symmetry Rings -->
  <circle cx="256" cy="256" r="180" fill="none" stroke="#c0c0c0" stroke-width="4" stroke-dasharray="10,10" opacity="0.8" />
  <circle cx="256" cy="256" r="160" fill="none" stroke="#808080" stroke-width="2" opacity="0.5" />

  <!-- Weaponized Shards -->
  <g fill="#ffd700" opacity="0.9">
    <polygon points="256,80 270,150 242,150" />
    <polygon points="256,432 270,362 242,362" />
    <polygon points="80,256 150,242 150,270" />
    <polygon points="432,256 362,242 362,270" />
    <polygon points="120,120 150,150 120,180" />
    <polygon points="392,392 362,362 392,332" />
    <polygon points="392,120 362,150 392,180" />
    <polygon points="120,392 150,362 120,332" />
  </g>

  <!-- Central Singularity -->
  <circle cx="256" cy="256" r="30" fill="#fff" opacity="0.2">
    <animate attributeName="r" values="25;35;25" dur="3s" repeatCount="indefinite" />
  </circle>
  <circle cx="256" cy="256" r="10" fill="#fff" />

  <!-- Ritual Glyphs (Simulated) -->
  <g fill="url(#grad_gold)" font-family="serif" font-size="12" text-anchor="middle">
    <text x="256" y="60">SCLDF METAPHYSICAL LITURGY</text>
    <text x="256" y="460">SOVEREIGN WILL : ABSOLUTE ZERO</text>
  </g>
</svg>
