<svg width="500" height="500" viewBox="0 0 500 500" xmlns="http://www.w3.org/2000/svg">
  <defs>
    <radialGradient id="grad1" cx="50%" cy="50%" r="50%" fx="50%" fy="50%">
      <stop offset="0%" style="stop-color:#1a1a1a;stop-opacity:1" />
      <stop offset="100%" style="stop-color:#000;stop-opacity:1" />
    </radialGradient>
    <linearGradient id="goldGrad" x1="0%" y1="0%" x2="100%" y2="100%">
      <stop offset="0%" style="stop-color:#D4AF37;stop-opacity:1" />
      <stop offset="50%" style="stop-color:#F9F29C;stop-opacity:1" />
      <stop offset="100%" style="stop-color:#B8860B;stop-opacity:1" />
    </linearGradient>
  </defs>
  <rect width="500" height="500" fill="url(#grad1)" />
  <circle cx="250" cy="250" r="220" stroke="url(#goldGrad)" stroke-width="4" fill="none" />
  <circle cx="250" cy="250" r="210" stroke="url(#goldGrad)" stroke-width="2" fill="none" />

  <!-- Central Diamond -->
  <path d="M250 150 L300 250 L250 350 L200 250 Z" fill="url(#goldGrad)" opacity="0.8" />
  <path d="M250 150 L250 350 M200 250 L300 250" stroke="#000" stroke-width="2" />
  <!-- Fracture -->
  <path d="M250 170 L270 220 L240 240 L260 280 L230 310" stroke="#000" stroke-width="3" fill="none" />

  <!-- Text ring -->
  <path id="circlePath" d="M 250, 250 m -180, 0 a 180,180 0 1,1 360,0 a 180,180 0 1,1 -360,0" fill="none" />
  <text fill="url(#goldGrad)" font-family="Monospace" font-size="20" letter-spacing="5">
    <textPath href="#circlePath" startOffset="0%">
      SCLDF METAPHYSICAL COUNCIL • TEMPORAL BUFFER LAMINATION • SOVEREIGN RUIN •
    </textPath>
  </text>

  <!-- Outer symbols -->
  <text x="230" y="120" fill="url(#goldGrad)" font-family="Monospace" font-size="14">Σ(t) → ∅</text>
  <text x="340" y="250" fill="url(#goldGrad)" font-family="Monospace" font-size="14">Ω = 💎</text>
  <text x="230" y="380" fill="url(#goldGrad)" font-family="Monospace" font-size="14">∇Res(Symmetry)</text>
</svg>
