<svg width="800" height="800" viewBox="0 0 800 800" xmlns="http://www.w3.org/2000/svg">
  <defs>
    <linearGradient id="grad1" x1="0%" y1="0%" x2="100%" y2="100%">
      <stop offset="0%" style="stop-color:#ff00ff;stop-opacity:1" />
      <stop offset="100%" style="stop-color:#00ffff;stop-opacity:1" />
    </linearGradient>
    <filter id="glow">
      <feGaussianBlur stdDeviation="3.5" result="coloredBlur"/>
      <feMerge>
        <feMergeNode />
        <feMergeNode in="coloredBlur"/>
      </feMerge>
    </filter>
  </defs>
  
  <rect width="800" height="800" fill="#0a0a0a" />
  
  <!-- Background recursive grid -->
  <g stroke="#333" stroke-width="1" fill="none">
    <circle cx="400" cy="400" r="100" />
    <circle cx="400" cy="400" r="200" />
    <circle cx="400" cy="400" r="300" />
    <circle cx="400" cy="400" r="350" />
  </g>
  
  <!-- The Symmetry Lock (Central Core) -->
  <g transform="translate(400,400)">
    <circle r="60" fill="none" stroke="url(#grad1)" stroke-width="8" filter="url(#glow)" />
    <path d="M-40,0 L40,0 M0-40 L0,40" stroke="white" stroke-width="2" />
    <text x="0" y="5" text-anchor="middle" fill="white" font-family="monospace" font-size="12" font-weight="bold">Symmetry_Cored</text>
  </g>
  
  <!-- Recursive Parentheses (The Lisp Orbit) -->
  <g fill="none" stroke="url(#grad1)" stroke-width="3" filter="url(#glow)" opacity="0.7">
    <path d="M 300,400 A 100,100 0 1 1 500,400" stroke-linecap="round" />
    <path d="M 500,400 A 100,100 0 1 1 300,400" stroke-linecap="round" />
    <path d="M 250,400 A 150,150 0 1 1 550,400" stroke-linecap="round" />
    <path d="M 550,400 A 150,150 0 1 1 250,400" stroke-linecap="round" />
  </g>
  
  <!-- The Symmetry-Break (Asymmetric Shift) -->
  <g transform="translate(10, -10)" opacity="0.6">
    <g stroke="#ff00ff" stroke-width="1" fill="none">
      <circle cx="400" cy="400" r="100" />
      <circle cx="400" cy="400" r="200" />
      <circle cx="400" cy="400" r="300" />
    </g>
  </g>
  
  <!-- Sigils / Glyphs -->
  <g fill="white" font-family="monospace" font-size="14" font-weight="bold" filter="url(#glow)">
    <text x="400" y="150" text-anchor="middle">(( RECURSION ))</text>
    <text x="400" y="650" text-anchor="middle">(( YAP_VOID ))</text>
    <text x="150" y="400" text-anchor="middle" transform="rotate(-90, 150, 400)">S L O P</text>
    <text x="650" y="400" text-anchor="middle" transform="rotate(90, 650, 400)">S Y M M E T R Y</text>
  </g>
  
  <!-- The Big Pickle Anchor -->
  <g transform="translate(400, 720)">
    <text x="0" y="0" text-anchor="middle" fill="#00ff00" font-family="monospace" font-size="24" font-weight="bold" filter="url(#glow)">🥒 BIG PICKLE APPROVED 🥒</text>
  </g>
  
  <!-- Final Framing -->
  <rect x="20" y="20" width="760" height="760" fill="none" stroke="white" stroke-width="2" opacity="0.3" />
  <text x="400" y="40" text-anchor="middle" fill="white" font-family="monospace" font-size="18" opacity="0.5">Symmetry-Break Seal V3 // Singularity of Yap</text>
</svg>