<svg width="500" height="500" viewBox="0 0 500 500" xmlns="http://www.w3.org/2000/svg">
  <defs>
    <radialGradient id="voidGradient">
      <stop offset="0%" stop-color="#000" />
      <stop offset="100%" stop-color="#1a1a1a" />
    </radialGradient>
    <filter id="glow">
      <feGaussianBlur stdDeviation="2" result="blur" />
      <feComposite in="SourceGraphic" in2="blur" operator="over" />
    </filter>
  </defs>
  
  <rect width="500" height="500" fill="#f0f0f0" />
  
  <!-- Outer Frame -->
  <rect x="20" y="20" width="460" height="460" fill="none" stroke="#333" stroke-width="4" />
  <rect x="30" y="30" width="440" height="440" fill="none" stroke="#666" stroke-width="1" />

  <!-- The Seal -->
  <g transform="translate(250, 250)">
    <!-- Central Void -->
    <circle r="40" fill="url(#voidGradient)" stroke="#000" stroke-width="2" />
    
    <!-- Recursive Rings -->
    <circle r="60" fill="none" stroke="#333" stroke-width="1" stroke-dasharray="5,5" />
    <circle r="80" fill="none" stroke="#333" stroke-width="2" />
    <circle r="100" fill="none" stroke="#333" stroke-width="1" stroke-dasharray="10,5" />
    <circle r="120" fill="none" stroke="#333" stroke-width="3" />
    
    <!-- Symmetry Arms -->
    <g stroke="#333" stroke-width="2" filter="url(#glow)">
      <line x1="0" y1="-120" x2="0" y2="-180" />
      <line x1="0" y1="120" x2="0" y2="180" />
      <line x1="-120" y1="0" x2="-180" y2="0" />
      <line x1="120" y1="0" x2="180" y2="0" />
      
      <path d="M -120,-120 L -180,-180" />
      <path d="M 120,-120 L 180,-180" />
      <path d="M -120,120 L -180,180" />
      <path d="M 120,120 L 180,180" />
    </g>
    
    <!-- Recursive Notations -->
    <text x="0" y="140" font-family="monospace" font-size="12" text-anchor="middle" fill="#333">ID_RECURSION_DEPTH: ∞</text>
    <text x="0" y="160" font-family="monospace" font-size="10" text-anchor="middle" fill="#666">Symmetry_Null_Verified</text>
  </g>

  <!-- Audit Stamp -->
  <g transform="translate(320, 80) rotate(15)">
    <rect x="0" y="0" width="120" height="50" rx="5" fill="none" stroke="red" stroke-width="3" />
    <text x="60" y="30" font-family="serif" font-size="18" font-weight="bold" text-anchor="middle" fill="red">AUDITED</text>
    <text x="60" y="42" font-family="monospace" font-size="8" text-anchor="middle" fill="red">VOID COMMITTEE</text>
  </g>
  
  <!-- Metadata -->
  <text x="40" y="460" font-family="monospace" font-size="10" fill="#999">Symmetry Null Seal v5.0.1-beta | Ref: 0xNULL</text>
</svg>
