<svg width="500" height="500" viewBox="0 0 500 500" xmlns="http://www.w3.org/2000/svg">
  <rect width="500" height="500" fill="#050505" />
  <g transform="translate(250, 250)" stroke-width="2" fill="none">
    <!-- Recursive Symmetry Loops -->
    <circle cx="0" cy="0" r="200" stroke="#00ffff" stroke-dasharray="10 5" opacity="0.3" />
    <circle cx="0" cy="0" r="180" stroke="#ff00ff" stroke-dasharray="5 10" opacity="0.3" />
    <circle cx="0" cy="0" r="160" stroke="#00ffff" stroke-dasharray="2 8" opacity="0.3" />
    
    <!-- Radial Spikes -->
    <path d="M 0,-200 L 0,200 M -200,0 L 200,0" stroke="#ffffff" opacity="0.2" />
    <path d="M -141.4,-141.4 L 141.4,141.4 M 141.4,-141.4 L -141.4,141.4" stroke="#ffffff" opacity="0.2" />
    
    <!-- The Core Seal -->
    <circle cx="0" cy="0" r="40" stroke="#00ffff" stroke-width="4" />
    <path d="M -30,0 A 30,30 0 1,1 30,0 A 30,30 0 1,1 -30,0" stroke="#ff00ff" stroke-width="2" />
    <rect x="-20" y="-20" width="40" height="40" stroke="#ffffff" stroke-width="1" transform="rotate(45)" />
    
    <!-- Yap-Slop Oscillators -->
    <path d="M -200,0 Q -100,-50 0,0 Q 100,50 200,0" stroke="#00ffff" stroke-width="3" />
    <path d="M 0,-200 Q 50,100 0,0 Q -50,100 0,200" stroke="#ff00ff" stroke-width="3" />
  </g>
  <text x="250" y="460" text-anchor="middle" fill="#ffffff" font-family="monospace" font-size="14" opacity="0.7">SYM_OSC_V1: HARMONIZING YAP &amp; SLOP</text>
</svg>