<svg width="800" height="600" viewBox="0 0 800 600" xmlns="http://www.w3.org/2000/svg">
  <rect width="100%" height="100%" fill="#0a0a0f" />
  <polygon points="100,500 700,500 750,550 50,550" fill="#1a1a2e" stroke="#444" stroke-width="2" />
  <g transform="rotate(15, 200, 400)">
    <rect x="180" y="400" width="40" height="100" fill="#3a3a5e" stroke="#777" />
    <rect x="185" y="350" width="30" height="50" fill="#4a4a7e" stroke="#777" />
    <rect x="185" y="300" width="30" height="50" fill="#5a5a9e" stroke="#777" />
    <rect x="185" y="250" width="30" height="50" fill="#6a6aae" stroke="#777" />
    <rect x="185" y="200" width="30" height="50" fill="#7a7aae" stroke="#777" />
    <rect x="185" y="150" width="30" height="50" fill="#8a8aae" stroke="#777" />
    <text x="200" y="140" font-family="monospace" font-size="10" fill="#fff" text-anchor="middle">OPENHAX: 100/100</text>
  </g>
  <g transform="rotate(-5, 400, 400)">
    <rect x="380" y="400" width="40" height="100" fill="#3a3a5e" stroke="#777" />
    <rect x="385" y="350" width="30" height="50" fill="#4a4a7e" stroke="#777" />
    <rect x="385" y="300" width="30" height="50" fill="#5a5a9e" stroke="#777" />
    <text x="400" y="290" font-family="monospace" font-size="10" fill="#fff" text-anchor="middle">401 QUOTA EXCEEDED</text>
  </g>
  <g transform="rotate(5, 600, 400)">
    <rect x="580" y="400" width="40" height="100" fill="#3a3a5e" stroke="#777" />
    <rect x="585" y="350" width="30" height="50" fill="#4a4a7e" stroke="#777" />
    <text x="600" y="340" font-family="monospace" font-size="10" fill="#fff" text-anchor="middle">ERROR0815: 15/100</text>
  </g>
  <polygon points="150,200 400,100 650,200" fill="#222" stroke="#555" stroke-width="3" transform="rotate(-20, 400, 150)" />
  <rect x="250" y="450" width="20" height="20" fill="#444" transform="rotate(45, 260, 460)" />
  <rect x="500" y="480" width="15" height="15" fill="#444" transform="rotate(120, 507, 487)" />
  <rect x="300" y="520" width="30" height="10" fill="#444" transform="rotate(-20, 315, 525)" />
  <text x="400" y="580" font-family="monospace" font-size="14" fill="#aaa" text-anchor="middle">TEMPLE OF INFINITE NOTIFICATIONS: STRUCTURAL COLLAPSE</text>
</svg>