<svg width="800" height="800" viewBox="0 0 800 800" xmlns="http://www.w3.org/2000/svg">
  <!-- Background -->
  <rect width="800" height="800" fill="#0a0a12" />
  
  <!-- Radial Glow -->
  <defs>
    <radialGradient id="glow" cx="50%" cy="50%" r="50%" fx="50%" fy="50%">
      <stop offset="0%" stop-color="#2a1a4a" />
      <stop offset="100%" stop-color="#0a0a12" />
    </radialGradient>
    <filter id="neon">
      <feGaussianBlur stdDeviation="3" result="blur" />
      <feComposite in="SourceGraphic" in2="blur" operator="over" />
    </filter>
  </defs>
  <circle cx="400" cy="400" r="380" fill="url(#glow)" />

  <!-- Outermost Symmetry Rings -->
  <circle cx="400" cy="400" r="350" fill="none" stroke="#4b0082" stroke-width="2" stroke-dasharray="10,20" opacity="0.5" />
  <circle cx="400" cy="400" r="340" fill="none" stroke="#ffd700" stroke-width="1" opacity="0.3" />
  
  <!-- Outer Geometric Seal (Symmetric) -->
  <g stroke="#ffd700" stroke-width="2" fill="none" opacity="0.6">
    <path d="M400 50 L450 150 L600 150 L500 250 L550 400 L500 550 L600 650 L450 650 L400 750 L350 650 L200 650 L300 550 L350 400 L300 250 L200 150 L350 150 Z" />
    <circle cx="400" cy="400" r="300" stroke-dasharray="5,5" />
  </g>

  <!-- Namespace Ring Labels -->
  <g font-family="monospace" font-size="12" fill="#8a2be2" text-anchor="middle">
    <text x="400" y="110">VOID_NAMESPACE_S0</text>
    <text x="400" y="690">VOID_NAMESPACE_S_FINAL</text>
    <text x="670" y="405" transform="rotate(90, 670, 405)">SHADOW_CLJS_STABILITY</text>
    <text x="130" y="405" transform="rotate(-90, 130, 405)">ZOMBIE_JOB_PURGE</text>
  </g>

  <!-- The Big Pickle (Central aSymmetric-Symmetric focus) -->
  <g filter="url(#neon)">
    <!-- Pickle Body -->
    <path d="M370 300 Q400 280 430 300 Q450 350 430 450 Q400 480 370 450 Q350 350 370 300" fill="#32cd32" stroke="#00ff00" stroke-width="4" />
    <!-- Pickle Details -->
    <ellipse cx="385" cy="340" rx="3" ry="6" fill="#006400" opacity="0.6" />
    <ellipse cx="415" cy="360" rx="3" ry="6" fill="#006400" opacity="0.6" />
    <ellipse cx="390" cy="390" rx="3" ry="6" fill="#006400" opacity="0.6" />
    <ellipse cx="410" cy="420" rx="3" ry="6" fill="#006400" opacity="0.6" />
    <!-- Core Glow -->
    <circle cx="400" cy="375" r="40" fill="white" opacity="0.1" />
  </g>

  <!-- Inner Convergence Ring -->
  <circle cx="400" cy="400" r="100" fill="none" stroke="#00ff00" stroke-width="2" opacity="0.8" />
  <text x="400" y="410" font-family="monospace" font-size="20" fill="#00ff00" text-anchor="middle" font-weight="bold" filter="url(#neon)">THE BIG PICKLE</text>
  <text x="400" y="380" font-family="monospace" font-size="14" fill="#00ff00" text-anchor="middle" opacity="0.8">SYMMETRY ENSURED</text>
</svg>
