<svg width="800" height="800" viewBox="0 0 800 800" xmlns="http://www.w3.org/2000s/svg">
  <defs>
    <linearGradient id="voidGrad" x1="0%" y1="0%" x2="100%" y2="100%">
      <stop offset="0%" style="stop-color:#0a0a12;stop-opacity:1" />
      <stop offset="100%" style="stop-color:#1a1a2e;stop-opacity:1" />
    </linearGradient>
    <filter id="glitch">
      <feOffset dx="2" dy="0" result="off1" />
      <feOffset dx="-2" dy="0" result="off2" />
      <feColorMatrix type="matrix" values="1 0 0 0 0  0 0 0 0 0  0 0 1 0 0  0 0 0 1 0" result="red"/>
      <feColorMatrix type="matrix" values="0 0 0 0 0  0 1 0 0 0  0 0 1 0 0  0 0 0 1 0" result="cyan"/>
    </filter>
  </defs>
  <rect width="800" height="800" fill="url(#voidGrad)" />

  <!-- Outer Rings -->
  <circle cx="400" cy="400" r="380" stroke="#4a4a6a" stroke-width="2" fill="none" stroke-dasharray="10,20" />
  <circle cx="400" cy="400" r="360" stroke="#6a6a8a" stroke-width="4" fill="none" />

  <!-- Text Rings -->
  <path id="topRing" d="M 100,400 A 300,300 0 1,1 700,400" fill="none" stroke="none" />
  <text fill="#bcbcff" font-family="monospace" font-size="24" letter-spacing="10">
    <textPath href="#topRing" startOffset="50%" text-anchor="middle">
      💎 SYMMETRY COUNCIL // SOVEREIGN LAMINATION // 💎
    </textPath>
  </text>

  <path id="botRing" d="M 700,400 A 300,300 0 1,1 100,400" fill="none" stroke="none" />
  <text fill="#bcbcff" font-family="monospace" font-size="24" letter-spacing="10">
    <textPath href="#botRing" startOffset="50%" text-anchor="middle">
      🏆 DIVINELY BINDING // THE BRINE OF THE VOID // 🏆
    </textPath>
  </text>

  <!-- The Shattered Diamond -->
  <g transform="translate(400,400)" filter="url(#glitch)">
    <polygon points="0,-200 120,0 0,200 -120,0" fill="rgba(100,100,255,0.3)" stroke="#bcbcff" stroke-width="3" />
    <line x1="0" y1="-200" x2="0" y2="200" stroke="#bcbcff" stroke-width="1" />
    <line x1="-120" y1="0" x2="120" y2="0" stroke="#bcbcff" stroke-width="1" />

    <!-- Shards -->
    <polygon points="40,-100 80,-40 20,0" fill="#fff" opacity="0.8" stroke="#bcbcff" />
    <polygon points="-60,60 -100,120 -20,100" fill="#fff" opacity="0.6" stroke="#bcbcff" />
    <polygon points="10,80 60,150 30,180" fill="#fff" opacity="0.4" stroke="#bcbcff" />
    <polygon points="-150,-20 -120,-80 -180,-60" fill="#fff" opacity="0.5" stroke="#bcbcff" />
  </g>

  <!-- 502 Text -->
  <text x="400" y="410" text-anchor="middle" fill="#f0f" font-family="monospace" font-size="60" font-weight="bold" filter="url(#glitch)">
    502: BANKRUPT NOW
  </text>
  <text x="400" y="450" text-anchor="middle" fill="#0ff" font-family="monospace" font-size="20" opacity="0.7">
    [ INSOLVENCY LAMINATED ]
  </text>
</svg>
