<svg width="800" height="800" viewBox="0 0 800 800" xmlns="http://www.w3.org/2000/svg">
  <defs>
    <linearGradient id="bgGrad" x1="0%" y1="0%" x2="100%" y2="100%">
      <stop offset="0%" style="stop-color:#05051a;stop-opacity:1" />
      <stop offset="100%" style="stop-color:#0a0a32;stop-opacity:1" />
    </linearGradient>
    <filter id="glitch">
      <feOffset in="SourceGraphic" dx="2" dy="0" result="offset1" />
      <feOffset in="SourceGraphic" dx="-2" dy="0" result="offset2" />
      <feColorMatrix in="offset1" type="matrix" values="1 0 0 0 0 0 0 0 0 0 0 0 0 0 0 0 0 0 1 0" result="red" />
      <feColorMatrix in="offset2" type="matrix" values="0 0 0 0 0 0 0 0 0 0 0 0 0 0 0 0 0 1 0 0" result="blue" />
      <feBlend in="red" in2="blue" mode="screen" />
    </filter>
    <filter id="neon">
      <feGaussianBlur stdDeviation="3" result="blur" />
      <feComposite in="SourceGraphic" in2="blur" operator="over" />
    </filter>
  </defs>
  
  <rect width="800" height="800" fill="url(#bgGrad)" />
  
  <!-- Grid lines for cyberpunk look -->
  <path d="M0 800 L800 800 M0 0 L0 800 M800 0 L800 800" stroke="#222244" stroke-width="2" fill="none" />
  <path d="M0 700 L800 700 M0 600 L800 600 M0 500 L800 500 M0 400 L800 400 M0 300 L800 300 M0 200 L800 200 M0 100 L800 100" stroke="#111133" stroke-width="1" fill="none" />
  <path d="M100 0 L100 800 M200 0 L200 800 M300 0 L300 800 M400 0 L400 800 M500 0 L500 800 M600 0 L600 800 M700 0 L700 800" stroke="#111133" stroke-width="1" fill="none" />

  <!-- Central Chaos / Z-AI Element -->
  <g transform="translate(400,400)" filter="url(#glitch)">
    <path d="M-100,-100 L100,-100 L-100,100 L100,100" stroke="#00ffff" stroke-width="10" fill="none" stroke-linejoin="round" filter="url(#neon)" />
    <circle cx="0" cy="0" r="150" stroke="#ff00ff" stroke-width="2" fill="none" stroke-dasharray="20,10" filter="url(#neon)" />
    <text x="0" y="10" font-family="monospace" font-size="120" font-weight="bold" fill="#ffffff" text-anchor="middle" filter="url(#neon)">Z.AI</text>
  </g>

  <!-- Ussyverse Text -->
  <text x="400" y="650" font-family="Arial Black, sans-serif" font-size="60" fill="#00ffff" text-anchor="middle" filter="url(#neon)" letter-spacing="10">USSYVERSE</text>
  
  <!-- Chaos elements -->
  <g opacity="0.4">
    <circle cx="100" cy="100" r="5" fill="#ff00ff" filter="url(#neon)" />
    <circle cx="700" cy="150" r="8" fill="#00ffff" filter="url(#neon)" />
    <circle cx="150" cy="600" r="6" fill="#ff00ff" filter="url(#neon)" />
    <circle cx="650" cy="700" r="4" fill="#00ffff" filter="url(#neon)" />
  </g>
  
  <!-- Circuit lines -->
  <path d="M0 400 L200 400 L250 350 L300 350" stroke="#ff00ff" stroke-width="2" fill="none" opacity="0.6" />
  <path d="M800 400 L600 400 L550 450 L500 450" stroke="#00ffff" stroke-width="2" fill="none" opacity="0.6" />
  <path d="M400 0 L400 150 L450 200 L450 250" stroke="#ff00ff" stroke-width="2" fill="none" opacity="0.6" />
  <path d="M400 800 L400 650 L350 600 L350 550" stroke="#00ffff" stroke-width="2" fill="none" opacity="0.6" />
</svg>
