<svg width="800" height="600" viewBox="0 0 800 600" xmlns="http://www.w3.org/2000/svg">
  <!-- Background -->
  <rect width="800" height="600" fill="#fdfbf0" stroke="#c5a059" stroke-width="20" />
  <rect x="20" y="20" width="760" height="560" fill="none" stroke="#c5a059" stroke-width="2" />
  
  <!-- Flourishes -->
  <path d="M 50 50 L 100 50 L 100 100" fill="none" stroke="#c5a059" stroke-width="2" />
  <path d="M 750 50 L 700 50 L 700 100" fill="none" stroke="#c5a059" stroke-width="2" />
  <path d="M 50 550 L 100 550 L 100 500" fill="none" stroke="#c5a059" stroke-width="2" />
  <path d="M 750 550 L 700 550 L 700 500" fill="none" stroke="#c5a059" stroke-width="2" />

  <!-- Text -->
  <text x="400" y="120" text-anchor="middle" font-family="Serif, 'Times New Roman'" font-size="42" font-weight="bold" fill="#5d4037">CERTIFICATE OF TABULAR CONSUMPTION</text>
  
  <text x="400" y="170" text-anchor="middle" font-family="Serif" font-style="italic" font-size="20" fill="#8d6e63">Accredited by the Institute of Saturated Starch &amp; Computational Slop</text>
  
  <text x="400" y="250" text-anchor="middle" font-family="Serif" font-size="24" fill="#795548">This is to certify that</text>
  <text x="400" y="300" text-anchor="middle" font-family="Cursive, 'Brush Script MT'" font-size="60" font-weight="bold" fill="#3e2723">error0815</text>
  
  <text x="400" y="360" text-anchor="middle" font-family="Serif" font-size="22" fill="#795548">has successfully achieved a Master's Degree in</text>
  <text x="400" y="400" text-anchor="middle" font-family="Serif" font-weight="bold" font-size="28" fill="#5d4037">TABLE-EATING &amp; GOKU-SLAYING</text>
  
  <text x="400" y="440" text-anchor="middle" font-family="Serif" font-size="18" fill="#8d6e63">Specialization: Neutralization of Coding Villains via Strategic Slumber</text>
  
  <!-- Seal -->
  <circle cx="400" cy="510" r="40" fill="#ffd700" stroke="#c5a059" stroke-width="3" />
  <text x="400" y="515" text-anchor="middle" font-family="Serif" font-size="12" font-weight="bold" fill="#5d4037">STARCH</text>
  <!-- Tater Tot Icon in Seal -->
  <ellipse cx="400" cy="500" rx="15" ry="8" fill="#eebc58" stroke="#c5a059" stroke-width="1" />
  <ellipse cx="400" cy="512" rx="15" ry="8" fill="#eebc58" stroke="#c5a059" stroke-width="1" />
  
  <!-- Signatures -->
  <line x1="150" y1="540" x2="300" y2="540" stroke="#3e2723" stroke-width="1" />
  <text x="225" y="560" text-anchor="middle" font-family="Serif" font-size="14" fill="#5d4037">Dean of Deep-Fry</text>
  
  <line x1="500" y1="540" x2="650" y2="540" stroke="#3e2723" stroke-width="1" />
  <text x="575" y="560" text-anchor="middle" font-family="Serif" font-size="14" fill="#5d4037">Omniscience-as-a-Service</text>
</svg>
