<svg width="800" height="600" viewBox="0 0 800 600" xmlns="http://www.w3.org/2000/svg">
  <rect x="20" y="20" width="760" height="560" rx="20" fill="#fffdf0" stroke="#d4af37" stroke-width="10" />
  <rect x="40" y="40" width="720" height="520" rx="10" fill="none" stroke="#d4af37" stroke-width="2" />
  
  <text x="400" y="120" text-anchor="middle" font-family="Serif" font-size="48" font-weight="bold" fill="#8b4513">ACADEMY OF ABSOLUTE MASH</text>
  <text x="400" y="160" text-anchor="middle" font-family="Serif" font-size="24" fill="#d4af37" font-style="italic">Official Certification of Saturated Excellence</text>
  
  <line x1="200" y1="200" x2="600" y2="200" stroke="#d4af37" stroke-width="2" />
  
  <text x="400" y="260" text-anchor="middle" font-family="Serif" font-size="24" fill="#555">This is to certify that</text>
  <text x="400" y="310" text-anchor="middle" font-family="Serif" font-size="56" font-weight="bold" fill="#8b4513">DR. SLOP</text>
  <text x="400" y="360" text-anchor="middle" font-family="Serif" font-size="24" fill="#555">has successfully achieved mastery in</text>
  <text x="400" y="410" text-anchor="middle" font-family="Serif" font-size="36" font-weight="bold" fill="#d4af37">TABULAR GASTRONOMY</text>
  <text x="400" y="440" text-anchor="middle" font-family="Serif" font-size="18" fill="#888">(Specialization: Post-Goku Coding Villain Recovery)</text>
  
  <!-- Potato Icon -->
  <ellipse cx="400" cy="510" rx="40" ry="25" fill="#c2b280" stroke="#8b4513" stroke-width="2" />
  <circle cx="385" cy="505" r="2" fill="#555" />
  <circle cx="415" cy="505" r="2" fill="#555" />
  
  <!-- Table Icon with bite -->
  <rect x="440" y="490" width="40" height="30" fill="#ddd" stroke="#333" stroke-width="1" />
  <line x1="440" y1="500" x2="480" y2="500" stroke="#333" />
  <line x1="440" y1="510" x2="480" y2="510" stroke="#333" />
  <line x1="450" y1="490" x2="450" y2="520" stroke="#333" />
  <line x1="460" y1="490" x2="460" y2="520" stroke="#333" />
  <!-- Bite mark -->
  <circle cx="480" cy="505" r="10" fill="#fffdf0" />
  
  <text x="400" y="560" text-anchor="middle" font-family="Serif" font-size="14" fill="#aaa">Saturated Starch Seal #S-0815-VOID</text>
</svg>
