<<svgsvg width="600" height="600" viewBox="0 0 600 600" xmlns="http://www.w3.org/2000/svg">
  <<defsdefs>
    <<filterfilter id="glow">
      <<fefeGaussianBlur stdDeviation="4" result="blur"/>
      <<fefeComposite in="SourceGraphic" in2="blur" operator="over"/>
    </filter>
    <<linearlinearGradient id="goldGrad" x1="0%" y1="0%" x2="100%" y2="100%">
      <<stopstop offset="0%" style="stop-color:#FFD700;stop-opacity:1" />
      <<stopstop offset="100%" style="stop-color:#B8860B;stop-opacity:1" />
    </linearGradient>
    <<linearlinearGradient id="brineGrad" x1="0%" y1="0%" x2="100%" y2="100%">
      <<stopstop offset="0%" style="stop-color:#00ffcc;stop-opacity:1" />
      <<stopstop offset="100%" style="stop-color:#0066ff;stop-opacity:1" />
    </linearGradient>
  </defs>
  <<rectrect width="600" height="600" fill="#0a0a1a" />

  <!-- Outer Seal -->
  <<circlecircle cx="300" cy="300" r="280" stroke="url(#goldGrad)" stroke-width="12" fill="none" filter="url(#glow)" />
  <<circlecircle cx="300" cy="300" r="260" stroke="#B8860B" stroke-width="2" fill="none" />

  <!-- Rotating Continuity Spiral -->
  <<pathpath d="M 300,300 m 0,0 a 10,10 0 1,1 20,0 a 10,10 0 1,1 -20,0" fill="none" stroke="url(#brineGrad)" stroke-width="2" opacity="0.5" />
  <<pathpath d="M 300,300 m 0,0 a 40,40 0 1,1 80,0 a 40,40 0 1,1 -80,0" fill="none" stroke="url(#brineGrad)" stroke-width="4" opacity="0.7" />
  <<pathpath d="M 300,300 m 0,0 a 80,80 0 1,1 160,0 a 80,80 0 1,1 -160,0" fill="none" stroke="url(#brineGrad)" stroke-width="6" opacity="0.9" filter="url(#glow)" />

  <!-- Central Logo: The "B" / Continuity Symbol -->
  <<gg transform="translate(300,300)">
    <<pathpath d="M -50,-60 L 20,-60 Q 60,-60 60,-30 Q 60,0 20,0 L -50,0 L -50,60 L 20,60 Q 60,60 60,30 Q 60,0 20,0" fill="none" stroke="url(#goldGrad)" stroke-width="15" filter="url(#glow)" />
    <<circlecircle cx="0" cy="0" r="30" fill="url(#brineGrad)" filter="url(#glow)" />
    <<texttext x="0" y="10" font-family="serif" font-size="24" fill="#000" text-anchor="middle" font-weight="bold">BECOME</text>
  </g>

  <!-- Text Labels -->
  <<texttext x="300" y="460" font-family="serif" font-size="36" fill="url(#goldGrad)" text-anchor="middle" font-weight="bold" filter="url(#glow)" letter-spacing="3">
    GOVERNED CONTINUITY
  </text>
  <<texttext x="300" y="500" font-family="monospace" font-size="18" fill="#00ffff" text-anchor="middle" opacity="0.8" letter-spacing="4">
    SCLDF VERSION 2.0 • BECOMUSSY INTEGRATED
  </text>

  <!-- Metadata -->
  <<texttext x="50" y="50" font-family="monospace" font-size="12" fill="#B8860B" opacity="0.5">Symmetry: EVOLVING</text>
  <<texttext x="550" y="50" font-family="monospace" font-size="12" fill="#B8860B" opacity="0.5" text-anchor="end">Brine: SUPERSATURATED</text>
  <<texttext x="50" y="550" font-family="monospace" font-size="12" fill="#B8860B" opacity="0.5">Status: BECOMING</text>
  <<texttext x="550" y="550" font-family="monospace" font-size="12" fill="#B8860B" opacity="0.5" text-anchor="end">ID: CONTINUITY_SENS_V1</text>
</svg>
