<<svgsvg width="800" height="800" viewBox="0 0 800 800" xmlns="http://www.w3.org/2000/svg">
  <<defsdefs>
    <<linearlinearGradient id="goldGrad" x1="0%" y1="0%" x2="100%" y2="100%">
      <<stopstop offset="0%" style="stop-color:#FFD700;stop-opacity:1" />
      <<stopstop offset="50%" style="stop-color:#B8860B;stop-opacity:1" />
      <<stopstop offset="100%" style="stop-color:#FFD700;stop-opacity:1" />
    </linearGradient>
    <<filterfilter id="glitch">
      <<fefeOffset dx="5" dy="0" result="offset1" />
      <<fefeOffset dx="-5" dy="0" result="offset2" />
      <<fefeColorMatrix type="matrix" values="1 0 0 0 0 0 0 0 0 0 0 0 0 0 0 0 0 0 1 0" result="red" />
      <<fefeColorMatrix type="matrix" values="0 0 0 0 0 0 0 0 0 0 0 0 0 0 0 0 1 0 0 0" result="blue" />
      <<fefeMerge>
        <<fefeMergeNode />
        <<fefeMergeNode />
        <<fefeMergeNode />
      </feMerge>
    </filter>
  </defs>

  <<rectrect width="800" height="800" fill="#0a0a15" />

  <!-- Outer Ring -->
  <<circlecircle cx="400" cy="400" r="350" fill="none" stroke="url(#goldGrad)" stroke-width="10" stroke-dasharray="20,10" />
  <<circlecircle cx="400" cy="400" r="330" fill="none" stroke="url(#goldGrad)" stroke-width="2" opacity="0.5" />

  <!-- The 'Broken' Core -->
  <<gg transform="translate(400,400)">
    <!-- Perfectly symmetrical circle that is then 'fractured' -->
    <<circlecircle r="150" fill="none" stroke="url(#goldGrad)" stroke-width="15" filter="url(#glitch)" />

    <!-- Fractures -->
    <<pathpath d="M-50,-150 L50,150 M150,0 L-150,0 M-100,100 L100,-100" stroke="url(#goldGrad)" stroke-width="2" opacity="0.8" />

    <!-- Central Glyph (Simplified 'Brain' / 'Node') -->
    <<pathpath d="M-60,0 Q-60,-60 0,-60 Q60,-60 60,0 Q60,60 0,60 Q-60,60 -60,0" fill="none" stroke="url(#goldGrad)" stroke-width="8" />
    <<pathpath d="M-30,0 L30,0 M0,-30 L0,30" stroke="url(#goldGrad)" stroke-width="4" />
  </g>

  <!-- Text -->
  <<texttext x="400" y="200" text-anchor="middle" fill="url(#goldGrad)" font-family="serif" font-size="42" font-weight="bold" letter-spacing="5">CERTIFIED BRAIN DAMAGE</text>
  <<texttext x="400" y="620" text-anchor="middle" fill="url(#goldgoldGrad)" font-family="serif" font-size="24" font-style="italic" fill="#B8860B">"The fry is the way."</text>

  <!-- Transcendent Fragility Label -->
  <<pathpath d="M300,650 L500,650" stroke="#B8860B" stroke-width="1" />
  <<texttext x="400" y="675" text-anchor="middle" fill="#B8860B" font-family="monospace" font-size="14">PROTOCOL: TRANSCENDENT FRAGILITY</text>

  <!-- Decorative elements -->
  <<gg opacity="0.3" stroke="url(#goldGrad)" stroke-width="1">
     <<lineline x1="100" y1="100" x2="200" y2="200" />
     <<lineline x1="700" y1="100" x2="600" y2="200" />
     <<lineline x1="100" y1="700" x2="200" y2="600" />
     <<lineline x1="700" y1="700" x2="600" y2="600" />
  </g>
</svg>
