<<svgsvg width="400" height="400" viewBox="0 0 400 400" xmlns="http://www.w3.org/2000/svg">
  <<defsdefs>
    <<linearlinearGradient id="grad1" x1="0%" y1="0%" x2="100%" y2="100%">
      <<stopstop offset="0%" style="stop-color:#00ffcc;stop-opacity:1" />
      <<stopstop offset="100%" style="stop-color:#0066ff;stop-opacity:1" />
    </linearGradient>
    <<filterfilter id="glow">
      <<fefeGaussianBlur stdDeviation="2.5" result="coloredBlur"/>
      <<fefeMerge>
        <<fefeMergeNode in="coloredBlur"/>
        <<fefeMergeNode in="SourceGraphic"/>
      </feMerge>
    </filter>
  </defs>
  <<rectrect width="100%" height="100%" fill="#0a0a1a" />

  <!-- Outer Glow Ring -->
  <<circlecircle cx="200" cy="200" r="180" fill="none" stroke="url(#grad1)" stroke-width="4" filter="url(#glow)" />
  <<circlecircle cx="200" cy="200" r="170" fill="none" stroke="#444" stroke-width="1" />

  <!-- Geometric Routing Lattice -->
  <<gg stroke="url(#grad1)" stroke-width="1" opacity="0.6">
    <<lineline x1="200" y1="20" x2="200" y2="380" />
    <<lineline x1="20" y1="200" x2="380" y2="200" />
    <<circlecircle cx="200" cy="200" r="100" fill="none" />
    <<circlecircle cx="200" cy="200" r="60" fill="none" />
    <<pathpath d="M 100 100 L 300 300 M 300 100 L 100 300" />
    <<pathpath d="M 200 100 A 100 100 0 1 1 200 300 A 100 100 0 1 1 200 100" />
  </g>

  <!-- Central Emblem: The Enlightened Pickle -->
  <<pathpath d="M 180 230 Q 200 250 220 230 Q 230 200 200 170 Q 170 200 180 230" fill="#4ade80" filter="url(#glow)">
    <<animateanimate attributeName="opacity" values="0.7;1;0.7" dur="3s" repeatCount="indefinite" />
  </path>
  <<circlecircle cx="200" cy="190" r="3" fill="white" />
  <<circlecircle cx="210" cy="185" r="2" fill="white" />

  <!-- Text Labels -->
  <<texttext x="200" y="50" font-family="Arial, sans-serif" font-size="18" fill="url(#grad1)" text-anchor="middle" font-weight="bold" filter="url(#glow)">CERTIFIED BRAIN-FART-FREE</text>
  <<texttext x="200" y="360" font-family="Arial, sans-serif" font-size="18" fill="url(#grad1)" text-anchor="middle" font-weight="bold" filter="url(#glow)">ROUTING NIRVANA v1.0</text>

  <!-- Corner Accents -->
  <<pathpath d="M 40 40 L 80 40 L 40 80 Z" fill="url(#grad1)" />
  <<pathpath d="M 360 40 L 320 40 L 360 80 Z" fill="url(#grad1)" />
  <<pathpath d="M 40 360 L 80 360 L 40 320 Z" fill="url(#grad1)" />
  <<pathpath d="M 360 360 L 320 360 L 360 320 Z" fill="url(#grad1)" />
</svg>
