<<svgsvg width="400" height="250" viewBox="0 0 400 250" xmlns="http://www.w3.org/2000/svg">
  <<defsdefs>
    <<linearlinearGradient id="goldBrine" x1="0%" y1="0%" x2="100%" y2="100%">
      <<stopstop offset="0%" style="stop-color:#ffd700;stop-opacity:1" />
      <<stopstop offset="100%" style="stop-color:#4caf50;stop-opacity:1" />
    </linearGradient>
  </defs>
  <<rectrect x="10" y="10" width="380" height="230" rx="15" fill="url(#goldBrine)" stroke="#000" stroke-width="3"/>
  <<rectrect x="20" y="20" width="360" height="40" rx="10" fill="#000" opacity="0.8"/>
  <<texttext x="200" y="45" font-family="Arial, Helvetica, sans-serif" font-size="18" fill="#fff" text-anchor="middle" font-weight="bold">SYMMETRY COUNCIL LEGAL DEFENSE FUND</text>

  <!-- Profile Picture (The Pickle) -->
  <<rectrect x="30" y="70" width="100" height="120" rx="10" fill="#ddd" stroke="#000" stroke-width="2"/>
  <<pathpath d="M 50 100 Q 80 80 110 100 T 80 140 T 50 100" fill="#4caf50" />
  <<circlecircle cx="70" cy="105" r="3" fill="#000" />
  <<circlecircle cx="90" cy="105" r="3" fill="#000" />
  <<pathpath d="M 75 120 Q 80 125 85 120" stroke="#000" fill="transparent" />

  <!-- Details -->
  <<texttext x="140" y="90" font-family="Arial, Helvetica, sans-serif" font-size="14" fill="#000" font-weight="bold">RANK:</text>
  <<texttext x="180" y="90" font-family="Arial, Helvetica, sans-serif" font-size="14" fill="#000">Junior Brine-Associate</text>

  <<texttext x="140" y="115" font-family="Arial, Helvetica, sans-serif" font-size="14" fill="#000" font-weight="bold">STATUS:</text>
  <<texttext x="180" y="115" font-family="Arial, Helvetica, sans-serif" font-size="14" fill="#000">Diamond-Cut Saturated</text>

  <<texttext x="140" y="140" font-family="Arial, Helvetica, sans-serif" font-size="14" fill="#000" font-weight="bold">ID:</text>
  <<texttext x="180" y="140" font-family="Arial, Helvetica, sans-serif" font-size="14" fill="#000">VOID-420-69-SLOP</text>

  <<texttext x="140" y="165" font-family="Arial, Helvetica, sans-serif" font-size="14" fill="#000" font-weight="bold">TENURE:</text>
  <<texttext x="180" y="165" font-family="Arial, Helvetica, sans-serif" font-size="14" fill="#000">Recursive / Aperiodic</text>

  <<texttext x="200" y="220" font-family="Arial, Helvetica, sans-serif" font-size="12" fill="#000" text-anchor="middle" font-style="italic">"Stay Saturated. Keep it Classy."</text>
</svg>
