<<svgsvg width="800" height="800" viewBox="0 0 800 800" xmlns="http://www.w3.org/2000/svg">
  <<defsdefs>
    <<radialradialGradient id="pickleGrad" cx="50%" cy="50%" r="50%" fx="50%" fy="50%">
      <<stopstop offset="0%" stop-color="#A4C639" />
      <<stopstop offset="100%" stop-color="#556B2F" />
    </radialGradient>
    <<linearlinearGradient id="platinumGrad" x1="0%" y1="0%" x2="100%" y2="100%">
      <<stopstop offset="0%" stop-color="#E5E4E2" />
      <<stopstop offset="50%" stop-color="#B4B4B4" />
      <<stopstop offset="100%" stop-color="#FFFFFF" />
    </linearGradient>
    <<filterfilter id="glow">
      <<fefeGaussianBlur stdDeviation="3.5" result="coloredBlur"/>
      <<fefeMerge>
        <<fefeMergeNode in="coloredBlur"/>
        <<fefeMergeNode in="SourceGraphic"/>
      </feMerge>
    </filter>
  </defs>

  <!-- Background -->
  <<rectrect width="800" height="800" fill="#0A0A0C" />

  <!-- Outer Symmetry Rings -->
  <<circlecircle cx="400" cy="400" r="380" stroke="url(#platinumGrad)" stroke-width="2" fill="none" opacity="0.3" />
  <<circlecircle cx="400" cy="400" r="360" stroke="url(#platinumGrad)" stroke-width="1" fill="none" opacity="0.5" />

  <!-- Kaleidoscopic Ornaments -->
  <<gg transform="translate(400,400)">
    <!-- Create 12 symmetrical shards -->
    <<gg id="shard">
      <<pathpath d="M0,-300 L20,-200 L0,-150 L-20,-200 Z" fill="url(#platinumGrad)" opacity="0.6" filter="url(#glow)" />
      <<pathpath d="M0,-320 L10,-250 L0,-220 L-10,-250 Z" fill="#FFFFFF" opacity="0.8" />
    </g>
    <<useuse xlink:href="#shard" transform="rotate(30)" />
    <<useuse xlink:href="#shard" transform="rotate(60)" />
    <<useuse xlink:href="#shard" transform="rotate(90)" />
    <<useuse xlink:href="#shard" transform="rotate(120)" />
    <<useuse xlink:href="#shard" transform="rotate(150)" />
    <<useuse xlink:href="#shard" transform="rotate(180)" />
    <<useuse xlink:href="#shard" transform="rotate(210)" />
    <<useuse xlink:href="#shard" transform="rotate(240)" />
    <<useuse xlink:href="#shard" transform="rotate(270)" />
    <<useuse xlink:href="#shard" transform="rotate(300)" />
    <<useuse xlink:href="#shard" transform="rotate(330)" />
  </g>

  <!-- The Big Pickle Core -->
  <<gg transform="translate(400,400)">
    <!-- Pickle Body -->
    <<pathpath d="M-40,-100 Q-60,0 -40,100 Q-10,120 40,100 Q60,0 40,-100 Q10,-120 -40,-100" fill="url(#pickleGrad)" filter="url(#glow)">
      <<animateanimate attributeName="opacity" values="0.8;1;0.8" dur="3s" repeatCount="indefinite" />
    </path>
    <!-- Pickle Texture/Bumps -->
    <<circlecircle cx="-20" cy="-40" r="5" fill="#3B4D20" opacity="0.5" />
    <<circlecircle cx="15" cy="-20" r="4" fill="#3B4D20" opacity="0.5" />
    <<circlecircle cx="-10" cy="20" r="6" fill="#3B4D20" opacity="0.5" />
    <<circlecircle cx="20" cy="50" r="5" fill="#3B4D20" opacity="0.5" />
    <<circlecircle cx="-15" cy="70" r="4" fill="#3B4D20" opacity="0.5" />

    <!-- Central Symmetry Eye -->
    <<circlecircle cx="0" cy="0" r="15" fill="#FFFFFF" filter="url(#glow)" />
    <<circlecircle cx="0" cy="0" r="8" fill="#000000" />
  </g>

  <!-- Text Label -->
  <<texttext x="400" y="720" text-anchor="middle" fill="url(#platinumGrad)" font-family="serif" font-size="32" font-weight="bold" filter="url(#glow)">SUPREME SEAL OF THE INFINITE PICKLE</text>
  <<texttext x="400" y="750" text-anchor="middle" fill="#A4C639" font-family="monospace" font-size="18" opacity="0.8">Symmetry Level: Absolute | Brain Farts: 0%</text>
</svg>
