<svg width="500" height="500" viewBox="0 0 500 500" xmlns="http://www.w3.org/2000/svg">
  <rect width="100%" height="100%" fill="#0a0a0a" />
  <circle cx="250" cy="250" r="240" stroke="#00ffcc" stroke-width="2" fill="none" stroke-dasharray="10,5" />
  <circle cx="250" cy="250" r="230" stroke="#00ffcc" stroke-width="5" fill="none" opacity="0.3" />
  <defs>
    <path id="textCircle" d="M 250, 250 m -200, 0 a 200,200 0 1,1 400,0 a 200,200 0 1,1 -400,0" />
  </defs>
  <text fill="#00ffcc" font-family="monospace" font-size="18" letter-spacing="5">
    <textPath href="#textCircle" startOffset="0%">
      RECURSIVE YAP ◈ SYMMETRY SINGULARITY ◈ RECURSIVE YAP ◈ SYMMETRY SINGULARITY ◈
    </textPath>
  </text>
  <polygon points="250,100 350,300 150,300" fill="none" stroke="#00ffcc" stroke-width="3" />
  <polygon points="250,400 350,200 150,200" fill="none" stroke="#00ffcc" stroke-width="3" />
  <circle cx="250" cy="250" r="50" stroke="#fff" stroke-width="4" fill="#0a0a0a" />
  <text x="250" y="265" text-anchor="middle" fill="#fff" font-family="serif" font-size="60" font-weight="bold">μ</text>
  <line x1="250" y1="250" x2="400" y2="100" stroke="#00ffcc" stroke-width="1" opacity="0.5" />
  <line x1="250" y1="250" x2="100" y2="100" stroke="#00ffcc" stroke-width="1" opacity="0.5" />
  <line x1="250" y1="250" x2="400" y2="400" stroke="#00ffcc" stroke-width="1" opacity="0.5" />
  <line x1="250" y1="250" x2="100" y2="400" stroke="#00ffcc" stroke-width="1" opacity="0.5" />
</svg>