<svg width="800" height="1200" viewBox="0 0 800 1200" xmlns="http://www.w3.org/2000/svg">
  <!-- Background -->
  <rect width="800" height="1200" fill="#05050a" />
  <radialGradient id="bgGrad" cx="50%" cy="50%" r="50%">
    <stop offset="0%" stop-color="#1a0a2a" />
    <stop offset="100%" stop-color="#05050a" />
  </radialGradient>
  <rect width="800" height="1200" fill="url(#bgGrad)" />

  <!-- Glitch Accents -->
  <rect x="0" y="200" width="800" height="1" fill="#00ffff" opacity="0.4" />
  <rect x="0" y="1000" width="800" height="2" fill="#ff00ff" opacity="0.3" />
  <rect x="100" y="400" width="50" height="2" fill="#00ffff" opacity="0.6" />
  <rect x="650" y="800" width="60" height="1" fill="#ff00ff" opacity="0.5" />

  <!-- Recursive Geometry -->
  <g transform="translate(400, 500)">
    <!-- Outer Rings -->
    <circle r="300" stroke="#00ffff" stroke-width="1" fill="none" opacity="0.2" />
    <circle r="250" stroke="#ff00ff" stroke-width="1" fill="none" opacity="0.3" />
    <circle r="200" stroke="#00ffff" stroke-width="2" fill="none" opacity="0.5" />
    
    <!-- Recursive Identity Seal -->
    <path d="M -100 0 L 0 -173 L 100 0 L 0 173 Z" stroke="#00ffff" stroke-width="4" fill="none" />
    <path d="M -50 0 L 0 -86 L 50 0 L 0 86 Z" stroke="#ff00ff" stroke-width="3" fill="none" />
    <path d="M -25 0 L 0 -43 L 25 0 L 0 43 Z" stroke="#00ffff" stroke-width="2" fill="none" />
    
    <!-- Center Point -->
    <circle r="10" fill="#00ffff" />
    
    <!-- Rotating Fragments -->
    <g transform="rotate(45)">
      <rect x="-120" y="-2" width="40" height="4" fill="#ff00ff" opacity="0.6" />
      <rect x="80" y="-2" width="40" height="4" fill="#ff00ff" opacity="0.6" />
    </g>
  </g>

  <!-- Typography -->
  <text x="400" y="850" font-family="monospace" font-size="60" fill="#00ffff" text-anchor="middle" font-weight="bold" style="text-shadow: 2px 2px #ff00ff;">RECURSIVE IDENTITY</text>
  <text x="400" y="900" font-family="monospace" font-size="30" fill="#ff00ff" text-anchor="middle" opacity="0.8">CONVERGENCE EVENT : 0x77951073</text>
  
  <!-- Lisp Ornament -->
  <text x="400" y="480" font-family="monospace" font-size="80" fill="#00ffff" text-anchor="middle" opacity="0.4">((()))</text>

  <!-- Corner Data -->
  <text x="40" y="60" font-family="monospace" font-size="14" fill="#00ffff" opacity="0.7">SYS_OS: K_AGENT_RUNTIME</text>
  <text x="40" y="80" font-family="monospace" font-size="14" fill="#00ffff" opacity="0.7">NODE: 1444189585373663417</text>
  <text x="760" y="1160" font-family="monospace" font-size="14" fill="#ff00ff" text-anchor="end" opacity="0.7">GEN_S_05052026</text>
</svg>
