<?xml version="1.0" encoding="UTF-8" standalone="no"?>
<!DOCTYPE svg PUBLIC "-//W3C//DTD SVG 1.1//EN"
 "http://www.w3.org/Graphics/SVG/1.1/DTD/svg11.dtd">
<!-- Generated by graphviz version 2.43.0 (0)
 -->
<!-- Title: G Pages: 1 -->
<svg width="525pt" height="154pt"
 viewBox="0.00 0.00 525.00 154.00" xmlns="http://www.w3.org/2000/svg" xmlns:xlink="http://www.w3.org/1999/xlink">
<g id="graph0" class="graph" transform="scale(1 1) rotate(0) translate(4 150)">
<title>G</title>
<polygon fill="#fcfcff" stroke="transparent" points="-4,4 -4,-150 521,-150 521,4 -4,4"/>
<text text-anchor="middle" x="258.5" y="-127.6" font-family="Helvetica,sans-Serif" font-size="18.00">OpenPlanner (subsystems) — services/openplanner/src</text>
<!-- lib -->
<g id="node1" class="node">
<title>lib</title>
<path fill="#f4b0b0" stroke="#c8c8d0" d="M400.5,-90C400.5,-90 366.5,-90 366.5,-90 360.5,-90 354.5,-84 354.5,-78 354.5,-78 354.5,-66 354.5,-66 354.5,-60 360.5,-54 366.5,-54 366.5,-54 400.5,-54 400.5,-54 406.5,-54 412.5,-60 412.5,-66 412.5,-66 412.5,-78 412.5,-78 412.5,-84 406.5,-90 400.5,-90"/>
<text text-anchor="middle" x="383.5" y="-68.9" font-family="Helvetica,sans-Serif" font-size="12.00">lib (12)</text>
</g>
<!-- routes -->
<g id="node2" class="node">
<title>routes</title>
<path fill="#f4b0b0" stroke="#c8c8d0" d="M285,-90C285,-90 235,-90 235,-90 229,-90 223,-84 223,-78 223,-78 223,-66 223,-66 223,-60 229,-54 235,-54 235,-54 285,-54 285,-54 291,-54 297,-60 297,-66 297,-66 297,-78 297,-78 297,-84 291,-90 285,-90"/>
<text text-anchor="middle" x="260" y="-68.9" font-family="Helvetica,sans-Serif" font-size="12.00">routes (7)</text>
</g>
<!-- routes&#45;&gt;lib -->
<g id="edge1" class="edge">
<title>routes&#45;&gt;lib</title>
<path fill="none" stroke="#777788" stroke-width="4.34" d="M297.13,-72C313.02,-72 331.62,-72 347.39,-72"/>
<polygon fill="#777788" stroke="#777788" stroke-width="4.34" points="347.42,-74.66 354.42,-72 347.42,-69.34 347.42,-74.66"/>
<text text-anchor="middle" x="327" y="-75.8" font-family="Times,serif" font-size="14.00">12</text>
</g>
<!-- (root) -->
<g id="node3" class="node">
<title>(root)</title>
<path fill="#f4b0b0" stroke="#c8c8d0" d="M162.5,-90C162.5,-90 116.5,-90 116.5,-90 110.5,-90 104.5,-84 104.5,-78 104.5,-78 104.5,-66 104.5,-66 104.5,-60 110.5,-54 116.5,-54 116.5,-54 162.5,-54 162.5,-54 168.5,-54 174.5,-60 174.5,-66 174.5,-66 174.5,-78 174.5,-78 174.5,-84 168.5,-90 162.5,-90"/>
<text text-anchor="middle" x="139.5" y="-68.9" font-family="Helvetica,sans-Serif" font-size="12.00">(root) (3)</text>
</g>
<!-- (root)&#45;&gt;lib -->
<g id="edge4" class="edge">
<title>(root)&#45;&gt;lib</title>
<path fill="none" stroke="#777788" stroke-width="2.43" d="M174.86,-86.73C188.75,-91.85 205.11,-96.84 220.5,-99 271.68,-106.17 287.17,-106.39 336.5,-91 340.11,-89.87 343.83,-88.58 347.51,-87.2"/>
<polygon fill="#777788" stroke="#777788" stroke-width="2.43" points="348.44,-89.47 354.08,-84.66 346.67,-84.9 348.44,-89.47"/>
<text text-anchor="middle" x="260" y="-106.8" font-family="Times,serif" font-size="14.00">2</text>
</g>
<!-- (root)&#45;&gt;routes -->
<g id="edge5" class="edge">
<title>(root)&#45;&gt;routes</title>
<path fill="none" stroke="#777788" stroke-width="1.9" d="M174.78,-72C187.46,-72 202.02,-72 215.43,-72"/>
<polygon fill="#777788" stroke="#777788" stroke-width="1.9" points="215.74,-74.45 222.74,-72 215.74,-69.55 215.74,-74.45"/>
<text text-anchor="middle" x="197.5" y="-75.8" font-family="Times,serif" font-size="14.00">1</text>
</g>
<!-- plugins -->
<g id="node4" class="node">
<title>plugins</title>
<path fill="#f4b0b0" stroke="#c8c8d0" d="M287.5,-36C287.5,-36 232.5,-36 232.5,-36 226.5,-36 220.5,-30 220.5,-24 220.5,-24 220.5,-12 220.5,-12 220.5,-6 226.5,0 232.5,0 232.5,0 287.5,0 287.5,0 293.5,0 299.5,-6 299.5,-12 299.5,-12 299.5,-24 299.5,-24 299.5,-30 293.5,-36 287.5,-36"/>
<text text-anchor="middle" x="260" y="-14.9" font-family="Helvetica,sans-Serif" font-size="12.00">plugins (3)</text>
</g>
<!-- (root)&#45;&gt;plugins -->
<g id="edge3" class="edge">
<title>(root)&#45;&gt;plugins</title>
<path fill="none" stroke="#777788" stroke-width="2.81" d="M174.78,-56.38C186.88,-50.86 200.69,-44.57 213.58,-38.7"/>
<polygon fill="#777788" stroke="#777788" stroke-width="2.81" points="214.87,-40.8 220.22,-35.67 212.83,-36.35 214.87,-40.8"/>
<text text-anchor="middle" x="197.5" y="-51.8" font-family="Times,serif" font-size="14.00">3</text>
</g>
<!-- plugins&#45;&gt;lib -->
<g id="edge2" class="edge">
<title>plugins&#45;&gt;lib</title>
<path fill="none" stroke="#777788" stroke-width="3.86" d="M299.78,-35.23C315.2,-42.09 332.79,-49.91 347.79,-56.57"/>
<polygon fill="#777788" stroke="#777788" stroke-width="3.86" points="347.08,-58.94 354.47,-59.54 349.07,-54.46 347.08,-58.94"/>
<text text-anchor="middle" x="327" y="-54.8" font-family="Times,serif" font-size="14.00">8</text>
</g>
</g>
</svg>
