<?xml version="1.0" encoding="UTF-8" standalone="no"?>
<!DOCTYPE svg PUBLIC "-//W3C//DTD SVG 1.1//EN"
 "http://www.w3.org/Graphics/SVG/1.1/DTD/svg11.dtd">
<!-- Generated by graphviz version 2.43.0 (0)
 -->
<!-- Title: G Pages: 1 -->
<svg width="941pt" height="835pt"
 viewBox="0.00 0.00 941.00 835.28" xmlns="http://www.w3.org/2000/svg" xmlns:xlink="http://www.w3.org/1999/xlink">
<g id="graph0" class="graph" transform="scale(1 1) rotate(0) translate(4 831.28)">
<title>G</title>
<polygon fill="#fcfcff" stroke="transparent" points="-4,4 -4,-831.28 937,-831.28 937,4 -4,4"/>
<text text-anchor="middle" x="251" y="-808.88" font-family="Helvetica,sans-Serif" font-size="18.00">OpenPlanner entry graph — services/openplanner/src</text>
<g id="clust1" class="cluster">
<title>cluster__root_</title>
<path fill="#f4b0b0" stroke="#e6e6ef" d="M20,-163.28C20,-163.28 156,-163.28 156,-163.28 162,-163.28 168,-169.28 168,-175.28 168,-175.28 168,-224.28 168,-224.28 168,-230.28 162,-236.28 156,-236.28 156,-236.28 20,-236.28 20,-236.28 14,-236.28 8,-230.28 8,-224.28 8,-224.28 8,-175.28 8,-175.28 8,-169.28 14,-163.28 20,-163.28"/>
<text text-anchor="middle" x="33" y="-222.68" font-family="Helvetica,sans-Serif" font-size="12.00">(root)</text>
</g>
<g id="clust2" class="cluster">
<title>cluster_lib</title>
<path fill="#f4b0b0" stroke="#e6e6ef" d="M480,-229.28C480,-229.28 913,-229.28 913,-229.28 919,-229.28 925,-235.28 925,-241.28 925,-241.28 925,-560.28 925,-560.28 925,-566.28 919,-572.28 913,-572.28 913,-572.28 480,-572.28 480,-572.28 474,-572.28 468,-566.28 468,-560.28 468,-560.28 468,-241.28 468,-241.28 468,-235.28 474,-229.28 480,-229.28"/>
<text text-anchor="middle" x="483" y="-558.68" font-family="Helvetica,sans-Serif" font-size="12.00">lib</text>
</g>
<g id="clust3" class="cluster">
<title>cluster_plugins</title>
<path fill="#f4b0b0" stroke="#e6e6ef" d="M340,-13.28C340,-13.28 430,-13.28 430,-13.28 436,-13.28 442,-19.28 442,-25.28 442,-25.28 442,-182.28 442,-182.28 442,-188.28 436,-194.28 430,-194.28 430,-194.28 340,-194.28 340,-194.28 334,-194.28 328,-188.28 328,-182.28 328,-182.28 328,-25.28 328,-25.28 328,-19.28 334,-13.28 340,-13.28"/>
<text text-anchor="middle" x="357.5" y="-180.68" font-family="Helvetica,sans-Serif" font-size="12.00">plugins</text>
</g>
<g id="clust4" class="cluster">
<title>cluster_routes</title>
<path fill="#f4b0b0" stroke="#e6e6ef" d="M200,-391.28C200,-391.28 436,-391.28 436,-391.28 442,-391.28 448,-397.28 448,-403.28 448,-403.28 448,-722.28 448,-722.28 448,-728.28 442,-734.28 436,-734.28 436,-734.28 200,-734.28 200,-734.28 194,-734.28 188,-728.28 188,-722.28 188,-722.28 188,-403.28 188,-403.28 188,-397.28 194,-391.28 200,-391.28"/>
<text text-anchor="middle" x="215" y="-720.68" font-family="Helvetica,sans-Serif" font-size="12.00">routes</text>
</g>
<!-- app.ts -->
<g id="node1" class="node">
<title>app.ts</title>
<g id="a_node1"><a xlink:title="app.ts">
<path fill="#f4f4fb" stroke="#c8c8d0" d="M148,-207.28C148,-207.28 118,-207.28 118,-207.28 112,-207.28 106,-201.28 106,-195.28 106,-195.28 106,-183.28 106,-183.28 106,-177.28 112,-171.28 118,-171.28 118,-171.28 148,-171.28 148,-171.28 154,-171.28 160,-177.28 160,-183.28 160,-183.28 160,-195.28 160,-195.28 160,-201.28 154,-207.28 148,-207.28"/>
<text text-anchor="middle" x="133" y="-187.08" font-family="Helvetica,sans-Serif" font-size="9.00">app.ts</text>
</a>
</g>
</g>
<!-- lib/config.ts -->
<g id="node4" class="node">
<title>lib/config.ts</title>
<g id="a_node4"><a xlink:title="lib/config.ts">
<path fill="#f4f4fb" stroke="#c8c8d0" d="M725,-327.28C725,-327.28 679,-327.28 679,-327.28 673,-327.28 667,-321.28 667,-315.28 667,-315.28 667,-303.28 667,-303.28 667,-297.28 673,-291.28 679,-291.28 679,-291.28 725,-291.28 725,-291.28 731,-291.28 737,-297.28 737,-303.28 737,-303.28 737,-315.28 737,-315.28 737,-321.28 731,-327.28 725,-327.28"/>
<text text-anchor="middle" x="702" y="-307.08" font-family="Helvetica,sans-Serif" font-size="9.00">lib/config.ts</text>
</a>
</g>
</g>
<!-- app.ts&#45;&gt;lib/config.ts -->
<g id="edge1" class="edge">
<title>app.ts&#45;&gt;lib/config.ts</title>
<path fill="none" stroke="#99aabb" d="M160,-190.76C257.28,-196.38 595.23,-216.65 615,-228.28 639.86,-242.91 629.68,-262.86 651,-282.28 654.41,-285.39 658.24,-288.26 662.22,-290.88"/>
<polygon fill="#99aabb" stroke="#99aabb" points="661.26,-292.55 666.95,-293.84 663.31,-289.29 661.26,-292.55"/>
</g>
<!-- plugins/auth.ts -->
<g id="node15" class="node">
<title>plugins/auth.ts</title>
<g id="a_node15"><a xlink:title="plugins/auth.ts">
<path fill="#f4f4fb" stroke="#c8c8d0" d="M415.5,-111.28C415.5,-111.28 354.5,-111.28 354.5,-111.28 348.5,-111.28 342.5,-105.28 342.5,-99.28 342.5,-99.28 342.5,-87.28 342.5,-87.28 342.5,-81.28 348.5,-75.28 354.5,-75.28 354.5,-75.28 415.5,-75.28 415.5,-75.28 421.5,-75.28 427.5,-81.28 427.5,-87.28 427.5,-87.28 427.5,-99.28 427.5,-99.28 427.5,-105.28 421.5,-111.28 415.5,-111.28"/>
<text text-anchor="middle" x="385" y="-91.08" font-family="Helvetica,sans-Serif" font-size="9.00">plugins/auth.ts</text>
</a>
</g>
</g>
<!-- app.ts&#45;&gt;plugins/auth.ts -->
<g id="edge2" class="edge">
<title>app.ts&#45;&gt;plugins/auth.ts</title>
<path fill="none" stroke="#99aabb" d="M160.15,-173.5C168.84,-168.59 178.68,-163.4 188,-159.28 237.51,-137.42 296.66,-118.42 336.94,-106.49"/>
<polygon fill="#99aabb" stroke="#99aabb" points="337.52,-108.33 342.25,-104.93 336.43,-104.64 337.52,-108.33"/>
</g>
<!-- plugins/chroma.ts -->
<g id="node16" class="node">
<title>plugins/chroma.ts</title>
<g id="a_node16"><a xlink:title="plugins/chroma.ts">
<path fill="#f4f4fb" stroke="#c8c8d0" d="M422,-57.28C422,-57.28 348,-57.28 348,-57.28 342,-57.28 336,-51.28 336,-45.28 336,-45.28 336,-33.28 336,-33.28 336,-27.28 342,-21.28 348,-21.28 348,-21.28 422,-21.28 422,-21.28 428,-21.28 434,-27.28 434,-33.28 434,-33.28 434,-45.28 434,-45.28 434,-51.28 428,-57.28 422,-57.28"/>
<text text-anchor="middle" x="385" y="-37.08" font-family="Helvetica,sans-Serif" font-size="9.00">plugins/chroma.ts</text>
</a>
</g>
</g>
<!-- app.ts&#45;&gt;plugins/chroma.ts -->
<g id="edge4" class="edge">
<title>app.ts&#45;&gt;plugins/chroma.ts</title>
<path fill="none" stroke="#99aabb" d="M143.53,-171.1C152.9,-154.78 168.61,-131.15 188,-116.28 230.48,-83.71 288.49,-63.21 330.36,-51.63"/>
<polygon fill="#99aabb" stroke="#99aabb" points="331.1,-53.42 335.9,-50.12 330.09,-49.71 331.1,-53.42"/>
</g>
<!-- plugins/duckdb.ts -->
<g id="node17" class="node">
<title>plugins/duckdb.ts</title>
<g id="a_node17"><a xlink:title="plugins/duckdb.ts">
<path fill="#f4f4fb" stroke="#c8c8d0" d="M422,-165.28C422,-165.28 348,-165.28 348,-165.28 342,-165.28 336,-159.28 336,-153.28 336,-153.28 336,-141.28 336,-141.28 336,-135.28 342,-129.28 348,-129.28 348,-129.28 422,-129.28 422,-129.28 428,-129.28 434,-135.28 434,-141.28 434,-141.28 434,-153.28 434,-153.28 434,-159.28 428,-165.28 422,-165.28"/>
<text text-anchor="middle" x="385" y="-145.08" font-family="Helvetica,sans-Serif" font-size="9.00">plugins/duckdb.ts</text>
</a>
</g>
</g>
<!-- app.ts&#45;&gt;plugins/duckdb.ts -->
<g id="edge3" class="edge">
<title>app.ts&#45;&gt;plugins/duckdb.ts</title>
<path fill="none" stroke="#99aabb" d="M160.28,-184.87C200.44,-178.12 277.92,-165.11 330.3,-156.31"/>
<polygon fill="#99aabb" stroke="#99aabb" points="330.82,-158.17 335.92,-155.36 330.18,-154.37 330.82,-158.17"/>
</g>
<!-- routes/v1/index.ts -->
<g id="node21" class="node">
<title>routes/v1/index.ts</title>
<g id="a_node21"><a xlink:title="routes/v1/index.ts">
<path fill="#f4f4fb" stroke="#c8c8d0" d="M282,-543.28C282,-543.28 208,-543.28 208,-543.28 202,-543.28 196,-537.28 196,-531.28 196,-531.28 196,-519.28 196,-519.28 196,-513.28 202,-507.28 208,-507.28 208,-507.28 282,-507.28 282,-507.28 288,-507.28 294,-513.28 294,-519.28 294,-519.28 294,-531.28 294,-531.28 294,-537.28 288,-543.28 282,-543.28"/>
<text text-anchor="middle" x="245" y="-523.08" font-family="Helvetica,sans-Serif" font-size="9.00">routes/v1/index.ts</text>
</a>
</g>
</g>
<!-- app.ts&#45;&gt;routes/v1/index.ts -->
<g id="edge5" class="edge">
<title>app.ts&#45;&gt;routes/v1/index.ts</title>
<path fill="none" stroke="#99aabb" d="M139.91,-207.35C158.45,-263.98 215.44,-438.05 236.27,-501.68"/>
<polygon fill="#99aabb" stroke="#99aabb" points="234.52,-502.5 238.06,-507.13 238.17,-501.3 234.52,-502.5"/>
</g>
<!-- main.ts -->
<g id="node2" class="node">
<title>main.ts</title>
<g id="a_node2"><a xlink:title="main.ts">
<path fill="#e9e9ff" stroke="#4b4be0" stroke-width="2.2" d="M58,-207.28C58,-207.28 28,-207.28 28,-207.28 22,-207.28 16,-201.28 16,-195.28 16,-195.28 16,-183.28 16,-183.28 16,-177.28 22,-171.28 28,-171.28 28,-171.28 58,-171.28 58,-171.28 64,-171.28 70,-177.28 70,-183.28 70,-183.28 70,-195.28 70,-195.28 70,-201.28 64,-207.28 58,-207.28"/>
<text text-anchor="middle" x="43" y="-187.08" font-family="Helvetica,sans-Serif" font-size="9.00">main.ts</text>
</a>
</g>
</g>
<!-- main.ts&#45;&gt;app.ts -->
<g id="edge14" class="edge">
<title>main.ts&#45;&gt;app.ts</title>
<path fill="none" stroke="#99aabb" d="M70.4,-189.28C79.8,-189.28 90.47,-189.28 100.27,-189.28"/>
<polygon fill="#99aabb" stroke="#99aabb" points="100.42,-191.21 105.92,-189.28 100.42,-187.36 100.42,-191.21"/>
</g>
<!-- main.ts&#45;&gt;lib/config.ts -->
<g id="edge15" class="edge">
<title>main.ts&#45;&gt;lib/config.ts</title>
<path fill="none" stroke="#99aabb" d="M45.87,-207.54C56.79,-309.04 116.11,-799.28 244,-799.28 244,-799.28 244,-799.28 386,-799.28 429.01,-799.28 521.93,-733.2 615,-552.28 648.74,-486.7 623.24,-458.62 651,-390.28 659.51,-369.33 673.21,-347.64 684.12,-331.98"/>
<polygon fill="#99aabb" stroke="#99aabb" points="685.81,-332.92 687.41,-327.32 682.66,-330.7 685.81,-332.92"/>
</g>
<!-- lib/chroma.ts -->
<g id="node3" class="node">
<title>lib/chroma.ts</title>
<g id="a_node3"><a xlink:title="lib/chroma.ts">
<path fill="#f4f4fb" stroke="#c8c8d0" d="M728,-273.28C728,-273.28 676,-273.28 676,-273.28 670,-273.28 664,-267.28 664,-261.28 664,-261.28 664,-249.28 664,-249.28 664,-243.28 670,-237.28 676,-237.28 676,-237.28 728,-237.28 728,-237.28 734,-237.28 740,-243.28 740,-249.28 740,-249.28 740,-261.28 740,-261.28 740,-267.28 734,-273.28 728,-273.28"/>
<text text-anchor="middle" x="702" y="-253.08" font-family="Helvetica,sans-Serif" font-size="9.00">lib/chroma.ts</text>
</a>
</g>
</g>
<!-- lib/embedding&#45;models.ts -->
<g id="node6" class="node">
<title>lib/embedding&#45;models.ts</title>
<g id="a_node6"><a xlink:title="lib/embedding&#45;models.ts">
<path fill="#f4f4fb" stroke="#c8c8d0" d="M905,-273.28C905,-273.28 801,-273.28 801,-273.28 795,-273.28 789,-267.28 789,-261.28 789,-261.28 789,-249.28 789,-249.28 789,-243.28 795,-237.28 801,-237.28 801,-237.28 905,-237.28 905,-237.28 911,-237.28 917,-243.28 917,-249.28 917,-249.28 917,-261.28 917,-261.28 917,-267.28 911,-273.28 905,-273.28"/>
<text text-anchor="middle" x="853" y="-253.08" font-family="Helvetica,sans-Serif" font-size="9.00">lib/embedding&#45;models.ts</text>
</a>
</g>
</g>
<!-- lib/chroma.ts&#45;&gt;lib/embedding&#45;models.ts -->
<g id="edge6" class="edge">
<title>lib/chroma.ts&#45;&gt;lib/embedding&#45;models.ts</title>
<path fill="none" stroke="#99aabb" d="M740.21,-255.28C753.23,-255.28 768.28,-255.28 783.05,-255.28"/>
<polygon fill="#99aabb" stroke="#99aabb" points="783.41,-257.21 788.91,-255.28 783.41,-253.36 783.41,-257.21"/>
</g>
<!-- lib/config.ts&#45;&gt;lib/embedding&#45;models.ts -->
<g id="edge7" class="edge">
<title>lib/config.ts&#45;&gt;lib/embedding&#45;models.ts</title>
<path fill="none" stroke="#99aabb" d="M737.18,-296.9C754.85,-290.49 776.85,-282.52 796.84,-275.27"/>
<polygon fill="#99aabb" stroke="#99aabb" points="797.64,-277.03 802.15,-273.35 796.33,-273.41 797.64,-277.03"/>
</g>
<!-- lib/duckdb.ts -->
<g id="node5" class="node">
<title>lib/duckdb.ts</title>
<g id="a_node5"><a xlink:title="lib/duckdb.ts">
<path fill="#f4f4fb" stroke="#c8c8d0" d="M728,-489.28C728,-489.28 676,-489.28 676,-489.28 670,-489.28 664,-483.28 664,-477.28 664,-477.28 664,-465.28 664,-465.28 664,-459.28 670,-453.28 676,-453.28 676,-453.28 728,-453.28 728,-453.28 734,-453.28 740,-459.28 740,-465.28 740,-465.28 740,-477.28 740,-477.28 740,-483.28 734,-489.28 728,-489.28"/>
<text text-anchor="middle" x="702" y="-469.08" font-family="Helvetica,sans-Serif" font-size="9.00">lib/duckdb.ts</text>
</a>
</g>
</g>
<!-- lib/embeddings.ts -->
<g id="node7" class="node">
<title>lib/embeddings.ts</title>
<g id="a_node7"><a xlink:title="lib/embeddings.ts">
<path fill="#f4f4fb" stroke="#c8c8d0" d="M582.5,-273.28C582.5,-273.28 508.5,-273.28 508.5,-273.28 502.5,-273.28 496.5,-267.28 496.5,-261.28 496.5,-261.28 496.5,-249.28 496.5,-249.28 496.5,-243.28 502.5,-237.28 508.5,-237.28 508.5,-237.28 582.5,-237.28 582.5,-237.28 588.5,-237.28 594.5,-243.28 594.5,-249.28 594.5,-249.28 594.5,-261.28 594.5,-261.28 594.5,-267.28 588.5,-273.28 582.5,-273.28"/>
<text text-anchor="middle" x="545.5" y="-253.08" font-family="Helvetica,sans-Serif" font-size="9.00">lib/embeddings.ts</text>
</a>
</g>
</g>
<!-- lib/hash.ts -->
<g id="node8" class="node">
<title>lib/hash.ts</title>
<g id="a_node8"><a xlink:title="lib/hash.ts">
<path fill="#f4f4fb" stroke="#c8c8d0" d="M565,-327.28C565,-327.28 526,-327.28 526,-327.28 520,-327.28 514,-321.28 514,-315.28 514,-315.28 514,-303.28 514,-303.28 514,-297.28 520,-291.28 526,-291.28 526,-291.28 565,-291.28 565,-291.28 571,-291.28 577,-297.28 577,-303.28 577,-303.28 577,-315.28 577,-315.28 577,-321.28 571,-327.28 565,-327.28"/>
<text text-anchor="middle" x="545.5" y="-307.08" font-family="Helvetica,sans-Serif" font-size="9.00">lib/hash.ts</text>
</a>
</g>
</g>
<!-- lib/importers/chatgpt.ts -->
<g id="node9" class="node">
<title>lib/importers/chatgpt.ts</title>
<g id="a_node9"><a xlink:title="lib/importers/chatgpt.ts">
<path fill="#f4f4fb" stroke="#c8c8d0" d="M595.5,-543.28C595.5,-543.28 495.5,-543.28 495.5,-543.28 489.5,-543.28 483.5,-537.28 483.5,-531.28 483.5,-531.28 483.5,-519.28 483.5,-519.28 483.5,-513.28 489.5,-507.28 495.5,-507.28 495.5,-507.28 595.5,-507.28 595.5,-507.28 601.5,-507.28 607.5,-513.28 607.5,-519.28 607.5,-519.28 607.5,-531.28 607.5,-531.28 607.5,-537.28 601.5,-543.28 595.5,-543.28"/>
<text text-anchor="middle" x="545.5" y="-523.08" font-family="Helvetica,sans-Serif" font-size="9.00">lib/importers/chatgpt.ts</text>
</a>
</g>
</g>
<!-- lib/importers/chatgpt.ts&#45;&gt;lib/duckdb.ts -->
<g id="edge8" class="edge">
<title>lib/importers/chatgpt.ts&#45;&gt;lib/duckdb.ts</title>
<path fill="none" stroke="#99aabb" d="M598.38,-507.15C617.76,-500.38 639.54,-492.76 658.04,-486.3"/>
<polygon fill="#99aabb" stroke="#99aabb" points="659.11,-487.97 663.66,-484.33 657.84,-484.33 659.11,-487.97"/>
</g>
<!-- lib/types.ts -->
<g id="node13" class="node">
<title>lib/types.ts</title>
<g id="a_node13"><a xlink:title="lib/types.ts">
<path fill="#f4f4fb" stroke="#c8c8d0" d="M723,-543.28C723,-543.28 681,-543.28 681,-543.28 675,-543.28 669,-537.28 669,-531.28 669,-531.28 669,-519.28 669,-519.28 669,-513.28 675,-507.28 681,-507.28 681,-507.28 723,-507.28 723,-507.28 729,-507.28 735,-513.28 735,-519.28 735,-519.28 735,-531.28 735,-531.28 735,-537.28 729,-543.28 723,-543.28"/>
<text text-anchor="middle" x="702" y="-523.08" font-family="Helvetica,sans-Serif" font-size="9.00">lib/types.ts</text>
</a>
</g>
</g>
<!-- lib/importers/chatgpt.ts&#45;&gt;lib/types.ts -->
<g id="edge9" class="edge">
<title>lib/importers/chatgpt.ts&#45;&gt;lib/types.ts</title>
<path fill="none" stroke="#99aabb" d="M607.56,-525.28C626.36,-525.28 646.49,-525.28 663.23,-525.28"/>
<polygon fill="#99aabb" stroke="#99aabb" points="663.28,-527.21 668.78,-525.28 663.28,-523.36 663.28,-527.21"/>
</g>
<!-- lib/jobs.ts -->
<g id="node10" class="node">
<title>lib/jobs.ts</title>
<g id="a_node10"><a xlink:title="lib/jobs.ts">
<path fill="#f4f4fb" stroke="#c8c8d0" d="M563,-435.28C563,-435.28 528,-435.28 528,-435.28 522,-435.28 516,-429.28 516,-423.28 516,-423.28 516,-411.28 516,-411.28 516,-405.28 522,-399.28 528,-399.28 528,-399.28 563,-399.28 563,-399.28 569,-399.28 575,-405.28 575,-411.28 575,-411.28 575,-423.28 575,-423.28 575,-429.28 569,-435.28 563,-435.28"/>
<text text-anchor="middle" x="545.5" y="-415.08" font-family="Helvetica,sans-Serif" font-size="9.00">lib/jobs.ts</text>
</a>
</g>
</g>
<!-- lib/paths.ts -->
<g id="node11" class="node">
<title>lib/paths.ts</title>
<g id="a_node11"><a xlink:title="lib/paths.ts">
<path fill="#f4f4fb" stroke="#c8c8d0" d="M567,-381.28C567,-381.28 524,-381.28 524,-381.28 518,-381.28 512,-375.28 512,-369.28 512,-369.28 512,-357.28 512,-357.28 512,-351.28 518,-345.28 524,-345.28 524,-345.28 567,-345.28 567,-345.28 573,-345.28 579,-351.28 579,-357.28 579,-357.28 579,-369.28 579,-369.28 579,-375.28 573,-381.28 567,-381.28"/>
<text text-anchor="middle" x="545.5" y="-361.08" font-family="Helvetica,sans-Serif" font-size="9.00">lib/paths.ts</text>
</a>
</g>
</g>
<!-- lib/semantic&#45;compaction.ts -->
<g id="node12" class="node">
<title>lib/semantic&#45;compaction.ts</title>
<g id="a_node12"><a xlink:title="lib/semantic&#45;compaction.ts">
<path fill="#f4f4fb" stroke="#c8c8d0" d="M603,-489.28C603,-489.28 488,-489.28 488,-489.28 482,-489.28 476,-483.28 476,-477.28 476,-477.28 476,-465.28 476,-465.28 476,-459.28 482,-453.28 488,-453.28 488,-453.28 603,-453.28 603,-453.28 609,-453.28 615,-459.28 615,-465.28 615,-465.28 615,-477.28 615,-477.28 615,-483.28 609,-489.28 603,-489.28"/>
<text text-anchor="middle" x="545.5" y="-469.08" font-family="Helvetica,sans-Serif" font-size="9.00">lib/semantic&#45;compaction.ts</text>
</a>
</g>
</g>
<!-- lib/semantic&#45;compaction.ts&#45;&gt;lib/chroma.ts -->
<g id="edge11" class="edge">
<title>lib/semantic&#45;compaction.ts&#45;&gt;lib/chroma.ts</title>
<path fill="none" stroke="#99aabb" d="M605.01,-453.27C608.7,-450.66 612.09,-447.69 615,-444.28 662.91,-388.21 606.53,-341.13 651,-282.28 653.41,-279.09 656.32,-276.23 659.49,-273.68"/>
<polygon fill="#99aabb" stroke="#99aabb" points="660.68,-275.2 663.98,-270.39 658.4,-272.09 660.68,-275.2"/>
</g>
<!-- lib/semantic&#45;compaction.ts&#45;&gt;lib/config.ts -->
<g id="edge12" class="edge">
<title>lib/semantic&#45;compaction.ts&#45;&gt;lib/config.ts</title>
<path fill="none" stroke="#99aabb" d="M601.74,-453.2C606.45,-450.58 610.96,-447.62 615,-444.28 620.03,-440.14 663.86,-369.59 686.93,-332.17"/>
<polygon fill="#99aabb" stroke="#99aabb" points="688.66,-333.03 689.91,-327.34 685.38,-331.01 688.66,-333.03"/>
</g>
<!-- lib/semantic&#45;compaction.ts&#45;&gt;lib/duckdb.ts -->
<g id="edge10" class="edge">
<title>lib/semantic&#45;compaction.ts&#45;&gt;lib/duckdb.ts</title>
<path fill="none" stroke="#99aabb" d="M615.17,-471.28C629.83,-471.28 644.92,-471.28 658.27,-471.28"/>
<polygon fill="#99aabb" stroke="#99aabb" points="658.38,-473.21 663.88,-471.28 658.38,-469.36 658.38,-473.21"/>
</g>
<!-- lib/vector&#45;search.ts -->
<g id="node14" class="node">
<title>lib/vector&#45;search.ts</title>
<g id="a_node14"><a xlink:title="lib/vector&#45;search.ts">
<path fill="#f4f4fb" stroke="#c8c8d0" d="M741,-435.28C741,-435.28 663,-435.28 663,-435.28 657,-435.28 651,-429.28 651,-423.28 651,-423.28 651,-411.28 651,-411.28 651,-405.28 657,-399.28 663,-399.28 663,-399.28 741,-399.28 741,-399.28 747,-399.28 753,-405.28 753,-411.28 753,-411.28 753,-423.28 753,-423.28 753,-429.28 747,-435.28 741,-435.28"/>
<text text-anchor="middle" x="702" y="-415.08" font-family="Helvetica,sans-Serif" font-size="9.00">lib/vector&#45;search.ts</text>
</a>
</g>
</g>
<!-- lib/semantic&#45;compaction.ts&#45;&gt;lib/vector&#45;search.ts -->
<g id="edge13" class="edge">
<title>lib/semantic&#45;compaction.ts&#45;&gt;lib/vector&#45;search.ts</title>
<path fill="none" stroke="#99aabb" d="M598.38,-453.15C613.44,-447.89 629.96,-442.11 645.26,-436.77"/>
<polygon fill="#99aabb" stroke="#99aabb" points="646.28,-438.45 650.83,-434.82 645.01,-434.82 646.28,-438.45"/>
</g>
<!-- plugins/auth.ts&#45;&gt;lib/config.ts -->
<g id="edge16" class="edge">
<title>plugins/auth.ts&#45;&gt;lib/config.ts</title>
<path fill="none" stroke="#99aabb" d="M427.77,-85.79C478.68,-79.24 564.18,-76.96 615,-123.28 668.55,-172.1 607.2,-224.57 651,-282.28 654.07,-286.32 657.92,-289.83 662.11,-292.85"/>
<polygon fill="#99aabb" stroke="#99aabb" points="661.13,-294.51 666.78,-295.95 663.26,-291.31 661.13,-294.51"/>
</g>
<!-- plugins/chroma.ts&#45;&gt;lib/chroma.ts -->
<g id="edge19" class="edge">
<title>plugins/chroma.ts&#45;&gt;lib/chroma.ts</title>
<path fill="none" stroke="#99aabb" d="M434.01,-25.86C483.81,-14.97 561.72,-6.72 615,-43.28 678.44,-86.82 695.11,-185.86 699.47,-231.47"/>
<polygon fill="#99aabb" stroke="#99aabb" points="697.56,-231.72 699.97,-237.03 701.39,-231.38 697.56,-231.72"/>
</g>
<!-- plugins/chroma.ts&#45;&gt;lib/config.ts -->
<g id="edge17" class="edge">
<title>plugins/chroma.ts&#45;&gt;lib/config.ts</title>
<path fill="none" stroke="#99aabb" d="M434.03,-41.13C493.54,-44.45 590.15,-53.58 615,-78.28 680.3,-143.19 597.12,-207.63 651,-282.28 654.01,-286.46 657.87,-290.05 662.1,-293.12"/>
<polygon fill="#99aabb" stroke="#99aabb" points="661.18,-294.82 666.83,-296.26 663.31,-291.61 661.18,-294.82"/>
</g>
<!-- plugins/chroma.ts&#45;&gt;lib/embedding&#45;models.ts -->
<g id="edge18" class="edge">
<title>plugins/chroma.ts&#45;&gt;lib/embedding&#45;models.ts</title>
<path fill="none" stroke="#99aabb" d="M431.78,-21.18C479.41,-5.25 555.24,11.83 615,-13.28 723.71,-58.98 807.53,-181.58 838.75,-232.56"/>
<polygon fill="#99aabb" stroke="#99aabb" points="837.11,-233.56 841.61,-237.27 840.4,-231.56 837.11,-233.56"/>
</g>
<!-- plugins/chroma.ts&#45;&gt;lib/embeddings.ts -->
<g id="edge20" class="edge">
<title>plugins/chroma.ts&#45;&gt;lib/embeddings.ts</title>
<path fill="none" stroke="#99aabb" d="M434.15,-56.15C439.15,-59.06 443.89,-62.42 448,-66.28 498.14,-113.44 526.49,-192.42 538.15,-231.66"/>
<polygon fill="#99aabb" stroke="#99aabb" points="536.36,-232.42 539.75,-237.16 540.06,-231.34 536.36,-232.42"/>
</g>
<!-- plugins/duckdb.ts&#45;&gt;lib/config.ts -->
<g id="edge21" class="edge">
<title>plugins/duckdb.ts&#45;&gt;lib/config.ts</title>
<path fill="none" stroke="#99aabb" d="M434.07,-134.49C484.65,-124.12 563.88,-117.03 615,-157.28 660.42,-193.05 614.74,-237.26 651,-282.28 654.14,-286.18 657.99,-289.59 662.15,-292.55"/>
<polygon fill="#99aabb" stroke="#99aabb" points="661.12,-294.18 666.77,-295.6 663.24,-290.96 661.12,-294.18"/>
</g>
<!-- plugins/duckdb.ts&#45;&gt;lib/duckdb.ts -->
<g id="edge22" class="edge">
<title>plugins/duckdb.ts&#45;&gt;lib/duckdb.ts</title>
<path fill="none" stroke="#99aabb" d="M434.18,-158.24C494.1,-172.86 591.42,-200.18 615,-228.28 677.55,-302.85 594.42,-365.1 651,-444.28 653.18,-447.34 655.82,-450.08 658.73,-452.54"/>
<polygon fill="#99aabb" stroke="#99aabb" points="657.96,-454.37 663.51,-456.17 660.29,-451.31 657.96,-454.37"/>
</g>
<!-- plugins/duckdb.ts&#45;&gt;lib/paths.ts -->
<g id="edge23" class="edge">
<title>plugins/duckdb.ts&#45;&gt;lib/paths.ts</title>
<path fill="none" stroke="#99aabb" d="M388.9,-165.4C395.79,-202.65 416.59,-288.36 468,-336.28 478.64,-346.2 493.15,-352.52 506.67,-356.51"/>
<polygon fill="#99aabb" stroke="#99aabb" points="506.18,-358.37 511.99,-357.99 507.2,-354.66 506.18,-358.37"/>
</g>
<!-- routes/v1/blobs.ts -->
<g id="node18" class="node">
<title>routes/v1/blobs.ts</title>
<g id="a_node18"><a xlink:title="routes/v1/blobs.ts">
<path fill="#f4f4fb" stroke="#c8c8d0" d="M422,-435.28C422,-435.28 348,-435.28 348,-435.28 342,-435.28 336,-429.28 336,-423.28 336,-423.28 336,-411.28 336,-411.28 336,-405.28 342,-399.28 348,-399.28 348,-399.28 422,-399.28 422,-399.28 428,-399.28 434,-405.28 434,-411.28 434,-411.28 434,-423.28 434,-423.28 434,-429.28 428,-435.28 422,-435.28"/>
<text text-anchor="middle" x="385" y="-415.08" font-family="Helvetica,sans-Serif" font-size="9.00">routes/v1/blobs.ts</text>
</a>
</g>
</g>
<!-- routes/v1/blobs.ts&#45;&gt;lib/hash.ts -->
<g id="edge24" class="edge">
<title>routes/v1/blobs.ts&#45;&gt;lib/hash.ts</title>
<path fill="none" stroke="#99aabb" d="M400.21,-399.16C415.3,-381.01 440.69,-353.38 468,-336.28 480.22,-328.63 494.9,-322.78 508.12,-318.52"/>
<polygon fill="#99aabb" stroke="#99aabb" points="509.01,-320.26 513.69,-316.79 507.86,-316.58 509.01,-320.26"/>
</g>
<!-- routes/v1/blobs.ts&#45;&gt;lib/paths.ts -->
<g id="edge25" class="edge">
<title>routes/v1/blobs.ts&#45;&gt;lib/paths.ts</title>
<path fill="none" stroke="#99aabb" d="M434.42,-400.79C457.58,-392.9 484.91,-383.59 506.54,-376.22"/>
<polygon fill="#99aabb" stroke="#99aabb" points="507.33,-377.98 511.91,-374.39 506.08,-374.34 507.33,-377.98"/>
</g>
<!-- routes/v1/events.ts -->
<g id="node19" class="node">
<title>routes/v1/events.ts</title>
<g id="a_node19"><a xlink:title="routes/v1/events.ts">
<path fill="#f4f4fb" stroke="#c8c8d0" d="M425,-705.28C425,-705.28 345,-705.28 345,-705.28 339,-705.28 333,-699.28 333,-693.28 333,-693.28 333,-681.28 333,-681.28 333,-675.28 339,-669.28 345,-669.28 345,-669.28 425,-669.28 425,-669.28 431,-669.28 437,-675.28 437,-681.28 437,-681.28 437,-693.28 437,-693.28 437,-699.28 431,-705.28 425,-705.28"/>
<text text-anchor="middle" x="385" y="-685.08" font-family="Helvetica,sans-Serif" font-size="9.00">routes/v1/events.ts</text>
</a>
</g>
</g>
<!-- routes/v1/events.ts&#45;&gt;lib/duckdb.ts -->
<g id="edge26" class="edge">
<title>routes/v1/events.ts&#45;&gt;lib/duckdb.ts</title>
<path fill="none" stroke="#99aabb" d="M437.19,-691.84C488.84,-693.47 567.57,-687.36 615,-642.28 662.82,-596.84 610.54,-550.39 651,-498.28 653.3,-495.32 656.03,-492.64 658.99,-490.22"/>
<polygon fill="#99aabb" stroke="#99aabb" points="660.56,-491.46 663.84,-486.64 658.27,-488.37 660.56,-491.46"/>
</g>
<!-- routes/v1/events.ts&#45;&gt;lib/types.ts -->
<g id="edge27" class="edge">
<title>routes/v1/events.ts&#45;&gt;lib/types.ts</title>
<path fill="none" stroke="#99aabb" d="M437.33,-689.82C486.58,-689.84 561.2,-683.35 615,-649.28 653.13,-625.14 678.89,-577.34 691.66,-548.65"/>
<polygon fill="#99aabb" stroke="#99aabb" points="693.46,-549.34 693.89,-543.53 689.93,-547.8 693.46,-549.34"/>
</g>
<!-- routes/v1/health.ts -->
<g id="node20" class="node">
<title>routes/v1/health.ts</title>
<g id="a_node20"><a xlink:title="routes/v1/health.ts">
<path fill="#f4f4fb" stroke="#c8c8d0" d="M424,-597.28C424,-597.28 346,-597.28 346,-597.28 340,-597.28 334,-591.28 334,-585.28 334,-585.28 334,-573.28 334,-573.28 334,-567.28 340,-561.28 346,-561.28 346,-561.28 424,-561.28 424,-561.28 430,-561.28 436,-567.28 436,-573.28 436,-573.28 436,-585.28 436,-585.28 436,-591.28 430,-597.28 424,-597.28"/>
<text text-anchor="middle" x="385" y="-577.08" font-family="Helvetica,sans-Serif" font-size="9.00">routes/v1/health.ts</text>
</a>
</g>
</g>
<!-- routes/v1/index.ts&#45;&gt;routes/v1/blobs.ts -->
<g id="edge29" class="edge">
<title>routes/v1/index.ts&#45;&gt;routes/v1/blobs.ts</title>
<path fill="none" stroke="#99aabb" d="M261.2,-507.11C276.66,-489.43 302,-462.62 328,-444.28 330.95,-442.2 334.09,-440.2 337.31,-438.3"/>
<polygon fill="#99aabb" stroke="#99aabb" points="338.6,-439.78 342.44,-435.39 336.7,-436.43 338.6,-439.78"/>
</g>
<!-- routes/v1/index.ts&#45;&gt;routes/v1/events.ts -->
<g id="edge30" class="edge">
<title>routes/v1/index.ts&#45;&gt;routes/v1/events.ts</title>
<path fill="none" stroke="#99aabb" d="M253.14,-543.73C264.91,-572.06 290.84,-626.55 328,-660.28 330.25,-662.32 332.68,-664.24 335.22,-666.04"/>
<polygon fill="#99aabb" stroke="#99aabb" points="334.26,-667.71 339.91,-669.15 336.39,-664.51 334.26,-667.71"/>
</g>
<!-- routes/v1/index.ts&#45;&gt;routes/v1/health.ts -->
<g id="edge28" class="edge">
<title>routes/v1/index.ts&#45;&gt;routes/v1/health.ts</title>
<path fill="none" stroke="#99aabb" d="M292.34,-543.42C305.19,-548.45 319.23,-553.94 332.37,-559.08"/>
<polygon fill="#99aabb" stroke="#99aabb" points="331.73,-560.9 337.55,-561.11 333.13,-557.31 331.73,-560.9"/>
</g>
<!-- routes/v1/jobs.ts -->
<g id="node22" class="node">
<title>routes/v1/jobs.ts</title>
<g id="a_node22"><a xlink:title="routes/v1/jobs.ts">
<path fill="#f4f4fb" stroke="#c8c8d0" d="M419,-489.28C419,-489.28 351,-489.28 351,-489.28 345,-489.28 339,-483.28 339,-477.28 339,-477.28 339,-465.28 339,-465.28 339,-459.28 345,-453.28 351,-453.28 351,-453.28 419,-453.28 419,-453.28 425,-453.28 431,-459.28 431,-465.28 431,-465.28 431,-477.28 431,-477.28 431,-483.28 425,-489.28 419,-489.28"/>
<text text-anchor="middle" x="385" y="-469.08" font-family="Helvetica,sans-Serif" font-size="9.00">routes/v1/jobs.ts</text>
</a>
</g>
</g>
<!-- routes/v1/index.ts&#45;&gt;routes/v1/jobs.ts -->
<g id="edge33" class="edge">
<title>routes/v1/index.ts&#45;&gt;routes/v1/jobs.ts</title>
<path fill="none" stroke="#99aabb" d="M292.34,-507.15C305.61,-501.96 320.14,-496.27 333.64,-490.99"/>
<polygon fill="#99aabb" stroke="#99aabb" points="334.54,-492.71 338.96,-488.91 333.13,-489.12 334.54,-492.71"/>
</g>
<!-- routes/v1/search.ts -->
<g id="node23" class="node">
<title>routes/v1/search.ts</title>
<g id="a_node23"><a xlink:title="routes/v1/search.ts">
<path fill="#f4f4fb" stroke="#c8c8d0" d="M425,-543.28C425,-543.28 345,-543.28 345,-543.28 339,-543.28 333,-537.28 333,-531.28 333,-531.28 333,-519.28 333,-519.28 333,-513.28 339,-507.28 345,-507.28 345,-507.28 425,-507.28 425,-507.28 431,-507.28 437,-513.28 437,-519.28 437,-519.28 437,-531.28 437,-531.28 437,-537.28 431,-543.28 425,-543.28"/>
<text text-anchor="middle" x="385" y="-523.08" font-family="Helvetica,sans-Serif" font-size="9.00">routes/v1/search.ts</text>
</a>
</g>
</g>
<!-- routes/v1/index.ts&#45;&gt;routes/v1/search.ts -->
<g id="edge31" class="edge">
<title>routes/v1/index.ts&#45;&gt;routes/v1/search.ts</title>
<path fill="none" stroke="#99aabb" d="M294.27,-525.28C304.86,-525.28 316.16,-525.28 327.06,-525.28"/>
<polygon fill="#99aabb" stroke="#99aabb" points="327.21,-527.21 332.71,-525.28 327.21,-523.36 327.21,-527.21"/>
</g>
<!-- routes/v1/sessions.ts -->
<g id="node24" class="node">
<title>routes/v1/sessions.ts</title>
<g id="a_node24"><a xlink:title="routes/v1/sessions.ts">
<path fill="#f4f4fb" stroke="#c8c8d0" d="M428,-651.28C428,-651.28 342,-651.28 342,-651.28 336,-651.28 330,-645.28 330,-639.28 330,-639.28 330,-627.28 330,-627.28 330,-621.28 336,-615.28 342,-615.28 342,-615.28 428,-615.28 428,-615.28 434,-615.28 440,-621.28 440,-627.28 440,-627.28 440,-639.28 440,-639.28 440,-645.28 434,-651.28 428,-651.28"/>
<text text-anchor="middle" x="385" y="-631.08" font-family="Helvetica,sans-Serif" font-size="9.00">routes/v1/sessions.ts</text>
</a>
</g>
</g>
<!-- routes/v1/index.ts&#45;&gt;routes/v1/sessions.ts -->
<g id="edge32" class="edge">
<title>routes/v1/index.ts&#45;&gt;routes/v1/sessions.ts</title>
<path fill="none" stroke="#99aabb" d="M261.2,-543.46C276.66,-561.14 302,-587.95 328,-606.28 330.95,-608.37 334.09,-610.37 337.31,-612.27"/>
<polygon fill="#99aabb" stroke="#99aabb" points="336.7,-614.13 342.44,-615.18 338.6,-610.79 336.7,-614.13"/>
</g>
<!-- routes/v1/jobs.ts&#45;&gt;lib/importers/chatgpt.ts -->
<g id="edge36" class="edge">
<title>routes/v1/jobs.ts&#45;&gt;lib/importers/chatgpt.ts</title>
<path fill="none" stroke="#99aabb" d="M431.42,-486.76C448.41,-492.55 467.96,-499.21 485.98,-505.35"/>
<polygon fill="#99aabb" stroke="#99aabb" points="485.69,-507.28 491.51,-507.23 486.93,-503.64 485.69,-507.28"/>
</g>
<!-- routes/v1/jobs.ts&#45;&gt;lib/jobs.ts -->
<g id="edge34" class="edge">
<title>routes/v1/jobs.ts&#45;&gt;lib/jobs.ts</title>
<path fill="none" stroke="#99aabb" d="M431.42,-455.81C456.49,-447.27 487.11,-436.84 510.17,-428.98"/>
<polygon fill="#99aabb" stroke="#99aabb" points="510.98,-430.74 515.56,-427.14 509.73,-427.1 510.98,-430.74"/>
</g>
<!-- routes/v1/jobs.ts&#45;&gt;lib/paths.ts -->
<g id="edge35" class="edge">
<title>routes/v1/jobs.ts&#45;&gt;lib/paths.ts</title>
<path fill="none" stroke="#99aabb" d="M431.18,-456.87C437.38,-453.47 443.24,-449.32 448,-444.28 465.58,-425.69 449.76,-408.24 468,-390.28 478.37,-380.08 492.82,-373.71 506.38,-369.75"/>
<polygon fill="#99aabb" stroke="#99aabb" points="506.92,-371.6 511.72,-368.29 505.9,-367.88 506.92,-371.6"/>
</g>
<!-- routes/v1/jobs.ts&#45;&gt;lib/semantic&#45;compaction.ts -->
<g id="edge37" class="edge">
<title>routes/v1/jobs.ts&#45;&gt;lib/semantic&#45;compaction.ts</title>
<path fill="none" stroke="#99aabb" d="M431.42,-471.28C443.51,-471.28 456.89,-471.28 470.08,-471.28"/>
<polygon fill="#99aabb" stroke="#99aabb" points="470.23,-473.21 475.73,-471.28 470.23,-469.36 470.23,-473.21"/>
</g>
<!-- routes/v1/search.ts&#45;&gt;lib/duckdb.ts -->
<g id="edge38" class="edge">
<title>routes/v1/search.ts&#45;&gt;lib/duckdb.ts</title>
<path fill="none" stroke="#99aabb" d="M435.45,-543.36C439.93,-545.99 444.2,-548.96 448,-552.28 460.91,-563.57 453.06,-576.87 468,-585.28 524.92,-617.35 560.68,-621.59 615,-585.28 649.79,-562.03 622.97,-529.36 651,-498.28 653.43,-495.59 656.19,-493.12 659.14,-490.85"/>
<polygon fill="#99aabb" stroke="#99aabb" points="660.54,-492.22 663.91,-487.46 658.31,-489.08 660.54,-492.22"/>
</g>
<!-- routes/v1/search.ts&#45;&gt;lib/types.ts -->
<g id="edge39" class="edge">
<title>routes/v1/search.ts&#45;&gt;lib/types.ts</title>
<path fill="none" stroke="#99aabb" d="M437.04,-542.75C441.09,-545.5 444.84,-548.66 448,-552.28 469.55,-576.99 441.86,-603.49 468,-623.28 520.09,-662.73 555.49,-650.24 615,-623.28 648.69,-608.03 674.4,-572.33 688.6,-548.5"/>
<polygon fill="#99aabb" stroke="#99aabb" points="690.35,-549.32 691.46,-543.6 687.02,-547.38 690.35,-549.32"/>
</g>
<!-- routes/v1/search.ts&#45;&gt;lib/vector&#45;search.ts -->
<g id="edge40" class="edge">
<title>routes/v1/search.ts&#45;&gt;lib/vector&#45;search.ts</title>
<path fill="none" stroke="#99aabb" d="M432.19,-543.33C443.71,-547.04 456.16,-550.39 468,-552.28 532.51,-562.63 562,-590.49 615,-552.28 656.05,-522.7 618.45,-483.03 651,-444.28 652.57,-442.42 654.3,-440.65 656.16,-439"/>
<polygon fill="#99aabb" stroke="#99aabb" points="657.62,-440.29 660.67,-435.33 655.19,-437.31 657.62,-440.29"/>
</g>
<!-- routes/v1/sessions.ts&#45;&gt;lib/duckdb.ts -->
<g id="edge41" class="edge">
<title>routes/v1/sessions.ts&#45;&gt;lib/duckdb.ts</title>
<path fill="none" stroke="#99aabb" d="M440.36,-643.63C491.13,-650.02 566.21,-650.67 615,-611.28 656.02,-578.18 617.37,-538.87 651,-498.28 653.35,-495.44 656.09,-492.86 659.04,-490.51"/>
<polygon fill="#99aabb" stroke="#99aabb" points="660.52,-491.81 663.84,-487.02 658.26,-488.7 660.52,-491.81"/>
</g>
</g>
</svg>
